<svg xmlns="http://www.w3.org/2000/svg" xmlns:xlink="http://www.w3.org/1999/xlink" viewBox="0 0 840.46 420.23"><defs><style>.cls-1{isolation:isolate;}.cls-2{fill:#4a84bc;}.cls-3{opacity:0.44;mix-blend-mode:screen;fill:url(#linear-gradient);}.cls-4{fill:#f3cb1c;}.cls-5{opacity:0.71;}.cls-6{fill:#f7e04a;}.cls-7{opacity:0.6;}.cls-10,.cls-11,.cls-12,.cls-27,.cls-30,.cls-31,.cls-43,.cls-44,.cls-45,.cls-8{mix-blend-mode:multiply;}.cls-8{fill:url(#linear-gradient-2);}.cls-22,.cls-23,.cls-42,.cls-9{fill:#fff;}.cls-10{fill:url(#linear-gradient-3);}.cls-11{fill:url(#linear-gradient-4);}.cls-12{fill:url(#linear-gradient-5);}.cls-13{fill:#d19d90;}.cls-14{fill:#24272b;}.cls-15{fill:#d4e555;}.cls-16{fill:#e1b7ac;}.cls-17{fill:#200808;}.cls-18{fill:#13103d;}.cls-19{fill:#192263;}.cls-20{fill:#a6c926;}.cls-21{fill:#930f07;}.cls-22{opacity:0.55;}.cls-23{opacity:0.63;}.cls-24{fill:#848484;}.cls-25{fill:#e0e0e0;}.cls-26{fill:#2f0807;}.cls-27{fill:url(#linear-gradient-6);}.cls-28{fill:#b5b1b1;}.cls-29{fill:#f79710;}.cls-30{fill:url(#linear-gradient-7);}.cls-31{fill:url(#linear-gradient-8);}.cls-32{fill:#111c49;}.cls-33{fill:#1e4b9c;}.cls-34{fill:#0d7f4a;}.cls-35{fill:#1a3c7f;}.cls-36{fill:#3e9a3a;}.cls-37{fill:#873f26;}.cls-38{opacity:0.9;}.cls-39{fill:#faae0b;}.cls-40{opacity:0.7;}.cls-41{fill:#af8f4e;}.cls-42{opacity:0.69;}.cls-43{fill:url(#linear-gradient-9);}.cls-44{fill:url(#linear-gradient-10);}.cls-45{fill:url(#linear-gradient-11);}.cls-46{opacity:0.85;}.cls-47,.cls-48{fill:#cc1009;}.cls-48{opacity:0.3;}.cls-49{fill:#2d2d2d;}.cls-50{fill:#dfb8aa;}.cls-51{fill:#cc9987;}.cls-52{fill:#380e08;}</style><linearGradient id="linear-gradient" x1="420.23" y1="22.92" x2="420.23" y2="303.74" gradientUnits="userSpaceOnUse"><stop offset="0"/><stop offset="0.09" stop-color="#0a0a0a"/><stop offset="0.23" stop-color="#262626"/><stop offset="0.42" stop-color="#535353"/><stop offset="0.65" stop-color="#919191"/><stop offset="0.91" stop-color="#e0e0e0"/><stop offset="1" stop-color="#fff"/></linearGradient><linearGradient id="linear-gradient-2" x1="456.45" y1="319.19" x2="598.18" y2="205.8" gradientTransform="matrix(1.05, 0.07, 0.07, 1.12, -40.22, -65.36)" gradientUnits="userSpaceOnUse"><stop offset="0.1" stop-color="#fff"/><stop offset="0.23" stop-color="#fafafa"/><stop offset="0.38" stop-color="#eaeaea"/><stop offset="0.55" stop-color="#d1d1d1"/><stop offset="0.73" stop-color="#adadad"/><stop offset="0.91" stop-color="#828282"/></linearGradient><linearGradient id="linear-gradient-3" x1="336.29" y1="333.14" x2="348.3" y2="295.46" gradientUnits="userSpaceOnUse"><stop offset="0" stop-color="#fff"/><stop offset="0.85" stop-color="#a1a1a1"/></linearGradient><linearGradient id="linear-gradient-4" x1="483.15" y1="326.58" x2="493.23" y2="294.96" gradientUnits="userSpaceOnUse"><stop offset="0" stop-color="#fff"/><stop offset="0.18" stop-color="#f2f2f2"/><stop offset="0.5" stop-color="#d0d0d0"/><stop offset="0.88" stop-color="#a1a1a1"/></linearGradient><linearGradient id="linear-gradient-5" x1="323.05" y1="261.38" x2="533.19" y2="40.2" gradientUnits="userSpaceOnUse"><stop offset="0.1" stop-color="#fff"/><stop offset="0.22" stop-color="#f6f6f6"/><stop offset="0.41" stop-color="#dfdfdf"/><stop offset="0.64" stop-color="#b8b8b8"/><stop offset="0.91" stop-color="#838383"/><stop offset="0.91" stop-color="#828282"/></linearGradient><linearGradient id="linear-gradient-6" x1="174.14" y1="328.79" x2="359.58" y2="180.42" xlink:href="#linear-gradient-5"/><linearGradient id="linear-gradient-7" x1="615.91" y1="272.4" x2="806.84" y2="171.11" gradientTransform="matrix(1.06, 0.09, 0.09, 1.15, -64.05, -104.36)" gradientUnits="userSpaceOnUse"><stop offset="0.26" stop-color="#fff"/><stop offset="0.91" stop-color="#828282"/></linearGradient><linearGradient id="linear-gradient-8" x1="24.3" y1="362.04" x2="257.24" y2="238.48" gradientTransform="matrix(1.1, 0.16, 0.16, 1.26, -96.61, -158.92)" xlink:href="#linear-gradient-7"/><linearGradient id="linear-gradient-9" x1="622.04" y1="401.46" x2="643.83" y2="333.09" xlink:href="#linear-gradient-3"/><linearGradient id="linear-gradient-10" x1="331.53" y1="401.79" x2="353.01" y2="334.42" gradientUnits="userSpaceOnUse"><stop offset="0" stop-color="#fff"/><stop offset="0.85" stop-color="gray"/></linearGradient><linearGradient id="linear-gradient-11" x1="273.61" y1="412.88" x2="289.95" y2="361.65" xlink:href="#linear-gradient-3"/></defs><title>bannier</title><g class="cls-1"><g id="Layer_1" data-name="Layer 1"><rect class="cls-2" width="840.46" height="420.23"/><rect class="cls-3" y="0.66" width="840.46" height="248.6"/><polygon class="cls-4" points="840.46 191.75 0.34 74.5 0 57.28 840.46 172.89 840.46 191.75"/><g class="cls-5"><path d="M193.57,89l2.29.32c1.36.19,2.38.89,2.14,2.58a2.25,2.25,0,0,1-2.78,2l-.87-.12L194,96.13l-1.41-.2Zm1.74,3.64a1,1,0,0,0,1.31-.94c.1-.73-.26-1-1-1.15l-.79-.11-.29,2.09Z" transform="translate(-0.85 -0.13)"/><path d="M198.62,93.2c.32-2.26,1.65-3.4,3.34-3.16s2.66,1.71,2.34,4-1.65,3.47-3.35,3.23S198.3,95.47,198.62,93.2Zm4.23.6c.2-1.38-.23-2.29-1.08-2.41s-1.51.64-1.7,2,.22,2.35,1.08,2.47S202.66,95.19,202.85,93.8Z" transform="translate(-0.85 -0.13)"/><path d="M206,90.73l1.42.2-.79,5.62,2.48.34-.18,1.32L205,97.67Z" transform="translate(-0.85 -0.13)"/><path d="M210.94,91.43l1.41.2-1,6.93-1.41-.2Z" transform="translate(-0.85 -0.13)"/><path d="M216.54,92.08a2.59,2.59,0,0,1,1.73,1.17l-.92.86a1.42,1.42,0,0,0-1-.67c-.88-.13-1.67.62-1.87,2s.28,2.34,1.2,2.47a1.51,1.51,0,0,0,1.28-.45l.65,1.06a2.5,2.5,0,0,1-2.13.74c-1.63-.23-2.78-1.64-2.45-4S214.93,91.86,216.54,92.08Z" transform="translate(-0.85 -0.13)"/><path d="M219.42,92.62l3.92.55-.19,1.32-2.5-.35-.2,1.39,2.14.3-.18,1.31-2.14-.3-.22,1.59,2.61.37-.19,1.32-4-.57Z" transform="translate(-0.85 -0.13)"/><path d="M226.68,93.64l1.41.2-.78,5.61,2.48.35-.18,1.32-3.9-.55Z" transform="translate(-0.85 -0.13)"/><path d="M231.66,94.34l1.41.19-1,6.94-1.41-.2Z" transform="translate(-0.85 -0.13)"/><path d="M234.55,94.74,236,95l1.15,3.67.4,1.62h0c0-.74.07-1.73.18-2.56l.34-2.44,1.35.19-1,6.93-1.45-.2-1.15-3.68-.41-1.6h0c0,.78-.06,1.72-.17,2.54l-.34,2.45-1.35-.18Z" transform="translate(-0.85 -0.13)"/><path d="M240.94,95.64l3.91.55-.18,1.31-2.51-.35-.19,1.4,2.13.3-.18,1.3-2.13-.3-.23,1.6,2.61.37-.19,1.31-4-.56Z" transform="translate(-0.85 -0.13)"/><path d="M248.19,96.66l1.77.25c1.91.26,3,1.49,2.66,3.87s-1.71,3.33-3.55,3.07l-1.84-.26Zm.9,5.9c1.06.15,1.85-.33,2.08-2s-.4-2.27-1.47-2.42l-.27,0-.61,4.4Z" transform="translate(-0.85 -0.13)"/><path d="M253.52,100.91c.31-2.27,1.65-3.41,3.34-3.17s2.66,1.71,2.35,4-1.66,3.47-3.35,3.23S253.2,103.17,253.52,100.91Zm4.23.59c.2-1.38-.23-2.29-1.08-2.41s-1.51.64-1.7,2,.22,2.35,1.07,2.47S257.56,102.89,257.75,101.5Z" transform="translate(-0.85 -0.13)"/><path d="M262.86,98.71l1.45.21,1.16,3.67.4,1.62h0c.05-.75.07-1.74.19-2.56l.33-2.45,1.35.19-1,6.94-1.45-.21-1.15-3.69-.4-1.59h0c-.05.77-.06,1.71-.18,2.53l-.34,2.45-1.35-.18Z" transform="translate(-0.85 -0.13)"/><path d="M268.47,103c.32-2.26,1.65-3.4,3.34-3.16s2.66,1.71,2.35,4-1.66,3.47-3.35,3.22S268.16,105.27,268.47,103Zm4.24.6c.19-1.38-.23-2.3-1.09-2.41s-1.5.63-1.7,2,.22,2.35,1.08,2.46S272.52,105,272.71,103.6Z" transform="translate(-0.85 -0.13)"/><path d="M276.66,102l-1.72-.24.19-1.32,4.86.69-.18,1.31-1.73-.24-.78,5.62-1.42-.2Z" transform="translate(-0.85 -0.13)"/><path d="M285.67,101.78A2.53,2.53,0,0,1,287.4,103l-.91.86a1.43,1.43,0,0,0-1-.68c-.87-.12-1.67.62-1.87,2s.28,2.34,1.21,2.47a1.52,1.52,0,0,0,1.28-.45l.64,1a2.5,2.5,0,0,1-2.13.75c-1.62-.23-2.78-1.64-2.45-4S284.06,101.55,285.67,101.78Z" transform="translate(-0.85 -0.13)"/><path d="M291,109.73l-.85-2.67-.79-.11-.34,2.5-1.41-.2,1-6.93,2.25.31c1.32.19,2.34.85,2.11,2.5a2.05,2.05,0,0,1-1.39,1.84l1,3Zm-1.46-4,.73.1c.74.1,1.2-.19,1.29-.88s-.28-1-1-1.07l-.73-.1Z" transform="translate(-0.85 -0.13)"/><path d="M293.7,106.54c.31-2.27,1.64-3.4,3.33-3.16s2.66,1.7,2.35,4-1.66,3.46-3.35,3.23S293.38,108.8,293.7,106.54Zm4.23.59c.19-1.38-.23-2.29-1.09-2.41s-1.51.64-1.7,2,.22,2.35,1.08,2.48S297.73,108.52,297.93,107.13Z" transform="translate(-0.85 -0.13)"/><path d="M300.74,109.11a2.48,2.48,0,0,0,1.45.94c.59.08.91-.13,1-.55s-.27-.62-.79-1l-.76-.5a2,2,0,0,1-1-2.07,2.13,2.13,0,0,1,2.52-1.75,2.78,2.78,0,0,1,1.89,1.2l-.86.88a2,2,0,0,0-1.22-.73c-.49-.07-.83.12-.88.52s.33.63.84,1l.75.48a1.92,1.92,0,0,1,1,2A2.19,2.19,0,0,1,302,111.4a3.31,3.31,0,0,1-2.17-1.33Z" transform="translate(-0.85 -0.13)"/><path d="M305.92,109.84a2.5,2.5,0,0,0,1.44.94c.59.07.91-.14,1-.55s-.28-.62-.79-1l-.76-.49a2,2,0,0,1-1-2.07A2.12,2.12,0,0,1,308.3,105a2.77,2.77,0,0,1,1.89,1.19l-.86.89a1.93,1.93,0,0,0-1.22-.74c-.49-.07-.83.13-.89.52s.34.63.84,1l.76.48a1.93,1.93,0,0,1,1,2,2.2,2.2,0,0,1-2.67,1.82A3.29,3.29,0,0,1,305,110.8Z" transform="translate(-0.85 -0.13)"/></g><g class="cls-5"><path d="M52.25,68.31l2.29.32c1.35.19,2.37.89,2.13,2.58a2.23,2.23,0,0,1-2.77,2L53,73.09l-.33,2.35-1.41-.2ZM54,72A1,1,0,0,0,55.29,71c.1-.72-.26-1-1-1.15l-.79-.11-.3,2.09Z" transform="translate(-0.85 -0.13)"/><path d="M57.29,72.51c.32-2.26,1.65-3.39,3.35-3.16s2.66,1.71,2.34,4-1.66,3.47-3.35,3.23S57,74.78,57.29,72.51Zm4.24.6c.19-1.38-.23-2.29-1.08-2.41s-1.51.64-1.71,2,.22,2.35,1.08,2.47S61.34,74.5,61.53,73.11Z" transform="translate(-0.85 -0.13)"/><path d="M64.64,70l1.42.21-.79,5.61,2.48.34-.19,1.32L63.67,77Z" transform="translate(-0.85 -0.13)"/><path d="M69.61,70.74l1.42.2-1,6.93-1.41-.2Z" transform="translate(-0.85 -0.13)"/><path d="M75.22,71.4a2.53,2.53,0,0,1,1.72,1.16l-.91.86a1.45,1.45,0,0,0-1-.67c-.87-.13-1.67.62-1.86,2s.28,2.34,1.2,2.47a1.52,1.52,0,0,0,1.28-.45l.65,1.06a2.53,2.53,0,0,1-2.14.74c-1.62-.23-2.77-1.64-2.45-4S73.6,71.17,75.22,71.4Z" transform="translate(-0.85 -0.13)"/><path d="M78.1,71.93l3.92.55-.19,1.32-2.51-.35-.19,1.39,2.13.3-.18,1.3L79,76.15l-.22,1.59,2.6.37-.18,1.32-4-.56Z" transform="translate(-0.85 -0.13)"/><path d="M85.36,73l1.41.2L86,78.76l2.49.35-.19,1.32-3.89-.55Z" transform="translate(-0.85 -0.13)"/><path d="M90.33,73.65l1.41.2-1,6.93-1.41-.2Z" transform="translate(-0.85 -0.13)"/><path d="M93.23,74.06l1.45.2,1.15,3.67.4,1.62h0c0-.74.06-1.73.18-2.55l.34-2.44,1.35.18-1,6.93-1.45-.2-1.15-3.68-.4-1.6h0c-.05.78-.06,1.72-.18,2.54l-.34,2.46L92.26,81Z" transform="translate(-0.85 -0.13)"/><path d="M99.61,75l3.92.55-.18,1.31-2.51-.35-.19,1.4,2.13.3-.19,1.3-2.13-.3-.22,1.6,2.6.37-.18,1.32-4-.57Z" transform="translate(-0.85 -0.13)"/><path d="M106.87,76l1.77.25c1.91.27,3,1.49,2.66,3.87s-1.72,3.33-3.55,3.07l-1.84-.26Zm.89,5.9c1.07.15,1.86-.32,2.09-2s-.41-2.27-1.48-2.42l-.26,0-.62,4.4Z" transform="translate(-0.85 -0.13)"/><path d="M112.19,80.22c.32-2.27,1.65-3.41,3.35-3.17s2.66,1.71,2.34,4-1.66,3.47-3.35,3.23S111.87,82.48,112.19,80.22Zm4.24.59c.19-1.38-.23-2.29-1.08-2.41s-1.51.64-1.71,2,.23,2.35,1.08,2.47S116.24,82.2,116.43,80.81Z" transform="translate(-0.85 -0.13)"/><path d="M121.54,78l1.45.2,1.15,3.67.4,1.62h0c0-.75.07-1.74.18-2.56l.34-2.44,1.34.18-1,6.94L124,85.44l-1.15-3.68-.41-1.6h0c-.06.77-.07,1.71-.18,2.53l-.35,2.45L120.57,85Z" transform="translate(-0.85 -0.13)"/><path d="M127.15,82.31c.31-2.26,1.64-3.4,3.33-3.16s2.67,1.71,2.35,4-1.65,3.47-3.34,3.23S126.83,84.58,127.15,82.31Zm4.23.6c.19-1.38-.23-2.29-1.08-2.41s-1.51.63-1.7,2,.22,2.35,1.07,2.47S131.19,84.3,131.38,82.91Z" transform="translate(-0.85 -0.13)"/><path d="M135.34,81.3l-1.72-.24.18-1.32,4.87.69-.19,1.31-1.72-.24L136,87.12l-1.43-.2Z" transform="translate(-0.85 -0.13)"/><path d="M144.35,81.09a2.57,2.57,0,0,1,1.73,1.17l-.92.86a1.42,1.42,0,0,0-1-.67c-.88-.13-1.68.62-1.87,2s.28,2.34,1.2,2.47a1.55,1.55,0,0,0,1.29-.45l.64,1.06a2.55,2.55,0,0,1-2.13.74c-1.63-.23-2.78-1.64-2.46-4S142.73,80.87,144.35,81.09Z" transform="translate(-0.85 -0.13)"/><path d="M149.65,89l-.85-2.67-.78-.11-.35,2.5-1.41-.2,1-6.93,2.26.31c1.32.19,2.34.85,2.11,2.5a2.06,2.06,0,0,1-1.39,1.84l1,3Zm-1.45-4,.73.1c.73.1,1.19-.19,1.29-.88s-.28-1-1-1.07l-.73-.1Z" transform="translate(-0.85 -0.13)"/><path d="M152.37,85.85c.31-2.27,1.65-3.4,3.34-3.16s2.66,1.71,2.35,4-1.66,3.46-3.35,3.23S152.05,88.11,152.37,85.85Zm4.24.6c.19-1.39-.24-2.3-1.09-2.42s-1.51.64-1.7,2,.22,2.34,1.07,2.47S156.41,87.84,156.61,86.45Z" transform="translate(-0.85 -0.13)"/><path d="M159.42,88.42a2.45,2.45,0,0,0,1.45.94c.58.09.91-.13,1-.55s-.28-.62-.79-1l-.77-.5a2,2,0,0,1-1-2.07,2.13,2.13,0,0,1,2.52-1.75,2.81,2.81,0,0,1,1.89,1.2l-.86.89a2,2,0,0,0-1.22-.74c-.49-.07-.83.13-.88.52s.33.63.83,1l.76.48a1.92,1.92,0,0,1,1,2,2.2,2.2,0,0,1-2.67,1.82,3.29,3.29,0,0,1-2.17-1.33Z" transform="translate(-0.85 -0.13)"/><path d="M164.59,89.15a2.45,2.45,0,0,0,1.44.94c.59.08.92-.14,1-.55s-.27-.62-.78-1l-.77-.49a2,2,0,0,1-1-2.07A2.12,2.12,0,0,1,167,84.27a2.77,2.77,0,0,1,1.89,1.2l-.86.88a1.93,1.93,0,0,0-1.22-.74c-.49-.06-.83.13-.89.52s.34.63.84,1l.76.48a1.92,1.92,0,0,1,1,2.06,2.18,2.18,0,0,1-2.66,1.81,3.28,3.28,0,0,1-2.18-1.32Z" transform="translate(-0.85 -0.13)"/></g><g class="cls-5"><path d="M336.17,109.15l2.29.32c1.36.19,2.37.9,2.14,2.58a2.26,2.26,0,0,1-2.78,2l-.88-.13-.32,2.35-1.42-.2Zm1.74,3.65a1,1,0,0,0,1.3-1c.11-.72-.26-1-1-1.15l-.79-.11-.29,2.1Z" transform="translate(-0.85 -0.13)"/><path d="M341.22,113.36c.31-2.27,1.64-3.4,3.34-3.17s2.66,1.71,2.34,4-1.65,3.47-3.35,3.23S340.9,115.63,341.22,113.36Zm4.23.59c.2-1.38-.23-2.29-1.08-2.41s-1.51.64-1.71,2,.23,2.35,1.09,2.47S345.26,115.35,345.45,114Z" transform="translate(-0.85 -0.13)"/><path d="M348.56,110.89l1.41.2-.78,5.61,2.48.35-.18,1.32-3.9-.55Z" transform="translate(-0.85 -0.13)"/><path d="M353.54,111.59l1.41.2-1,6.93-1.41-.2Z" transform="translate(-0.85 -0.13)"/><path d="M359.14,112.24a2.51,2.51,0,0,1,1.72,1.16l-.91.86a1.45,1.45,0,0,0-1-.67c-.88-.12-1.68.62-1.87,2s.28,2.35,1.2,2.48a1.52,1.52,0,0,0,1.28-.45l.65,1.05a2.48,2.48,0,0,1-2.14.74c-1.62-.22-2.78-1.63-2.45-4S357.52,112,359.14,112.24Z" transform="translate(-0.85 -0.13)"/><path d="M362,112.78l3.92.55-.18,1.31-2.51-.35-.2,1.39,2.14.3-.19,1.31-2.13-.3-.22,1.6,2.6.36-.18,1.32-4-.56Z" transform="translate(-0.85 -0.13)"/><path d="M369.28,113.79l1.41.2-.78,5.61,2.48.35-.19,1.32-3.89-.54Z" transform="translate(-0.85 -0.13)"/><path d="M374.25,114.49l1.42.2-1,6.93-1.42-.19Z" transform="translate(-0.85 -0.13)"/><path d="M377.14,114.9l1.45.2,1.16,3.67.4,1.62h0c0-.74.07-1.74.18-2.56l.34-2.44,1.34.19-1,6.93-1.46-.21-1.15-3.68-.4-1.6h0c-.05.77-.06,1.71-.17,2.53l-.34,2.46-1.35-.19Z" transform="translate(-0.85 -0.13)"/><path d="M383.53,115.79l3.92.55-.18,1.32-2.51-.36-.2,1.4,2.14.3-.18,1.31-2.14-.3-.22,1.59,2.6.37-.18,1.32-4-.56Z" transform="translate(-0.85 -0.13)"/><path d="M390.79,116.81l1.77.25c1.92.27,3,1.49,2.67,3.87s-1.72,3.33-3.56,3.07l-1.84-.26Zm.89,5.9c1.07.15,1.86-.32,2.09-2s-.41-2.27-1.47-2.42l-.27,0-.61,4.4Z" transform="translate(-0.85 -0.13)"/><path d="M396.12,121.06c.31-2.27,1.64-3.4,3.34-3.17s2.66,1.71,2.34,4-1.66,3.46-3.34,3.22S395.8,123.32,396.12,121.06Zm4.23.59c.19-1.38-.23-2.29-1.09-2.4s-1.5.63-1.7,2,.23,2.35,1.08,2.47S400.16,123,400.35,121.65Z" transform="translate(-0.85 -0.13)"/><path d="M405.46,118.87l1.45.2,1.15,3.67.41,1.62h0c.05-.74.07-1.74.18-2.56l.35-2.44,1.34.19-1,6.93-1.45-.2-1.15-3.69-.4-1.6h0c-.05.77-.07,1.71-.18,2.53l-.34,2.46-1.35-.19Z" transform="translate(-0.85 -0.13)"/><path d="M411.07,123.16c.32-2.27,1.65-3.41,3.34-3.17s2.66,1.71,2.35,4-1.66,3.46-3.35,3.22S410.75,125.42,411.07,123.16Zm4.23.59c.2-1.38-.22-2.29-1.08-2.41s-1.51.64-1.7,2,.22,2.35,1.08,2.47S415.11,125.14,415.3,123.75Z" transform="translate(-0.85 -0.13)"/><path d="M419.26,122.14l-1.72-.24.18-1.31,4.86.68-.18,1.32-1.72-.24L419.9,128l-1.42-.2Z" transform="translate(-0.85 -0.13)"/><path d="M428.27,121.93A2.57,2.57,0,0,1,430,123.1l-.92.86a1.42,1.42,0,0,0-1-.67c-.87-.13-1.68.62-1.87,2s.29,2.34,1.21,2.47a1.53,1.53,0,0,0,1.28-.45l.64,1.06a2.5,2.5,0,0,1-2.13.74c-1.62-.23-2.78-1.64-2.45-4S426.66,121.71,428.27,121.93Z" transform="translate(-0.85 -0.13)"/><path d="M433.58,129.88l-.85-2.67-.78-.1-.35,2.49-1.42-.19,1-6.94,2.26.32c1.32.18,2.34.85,2.11,2.49a2.07,2.07,0,0,1-1.4,1.85l1,3Zm-1.46-4,.73.1c.74.1,1.19-.19,1.29-.87s-.28-1-1-1.08l-.73-.1Z" transform="translate(-0.85 -0.13)"/><path d="M436.29,126.69c.32-2.26,1.65-3.4,3.34-3.16s2.66,1.71,2.35,4-1.66,3.47-3.35,3.23S436,129,436.29,126.69Zm4.23.6c.2-1.38-.22-2.29-1.08-2.41s-1.51.63-1.7,2,.22,2.35,1.07,2.47S440.33,128.68,440.52,127.29Z" transform="translate(-0.85 -0.13)"/><path d="M443.34,129.27a2.55,2.55,0,0,0,1.45.94c.59.08.91-.14,1-.55s-.27-.62-.79-1l-.76-.5a2,2,0,0,1-1-2.06,2.13,2.13,0,0,1,2.52-1.76,2.78,2.78,0,0,1,1.89,1.2l-.86.89a2,2,0,0,0-1.22-.74c-.49-.07-.83.13-.88.52s.33.63.83,1l.76.48a1.93,1.93,0,0,1,1,2,2.19,2.19,0,0,1-2.67,1.82,3.25,3.25,0,0,1-2.17-1.32Z" transform="translate(-0.85 -0.13)"/><path d="M448.51,130a2.45,2.45,0,0,0,1.45.94c.58.08.91-.13,1-.55s-.28-.62-.79-.95l-.76-.5a2,2,0,0,1-1-2.07,2.12,2.12,0,0,1,2.52-1.75,2.81,2.81,0,0,1,1.89,1.2l-.86.88a1.94,1.94,0,0,0-1.22-.73c-.49-.07-.83.12-.89.52s.34.63.84,1l.76.48a1.92,1.92,0,0,1,1,2.05,2.2,2.2,0,0,1-2.67,1.82,3.29,3.29,0,0,1-2.17-1.33Z" transform="translate(-0.85 -0.13)"/></g><g class="cls-5"><path d="M480.87,128.41l2.28.32c1.36.19,2.38.9,2.14,2.58a2.24,2.24,0,0,1-2.78,2l-.87-.12-.33,2.35-1.41-.19Zm1.73,3.65a1,1,0,0,0,1.31-.94c.1-.73-.27-1.05-1-1.16l-.8-.1-.29,2.09Z" transform="translate(-0.85 -0.13)"/><path d="M485.91,132.62c.32-2.27,1.65-3.4,3.34-3.16s2.66,1.7,2.35,4-1.66,3.46-3.35,3.22S485.6,134.88,485.91,132.62Zm4.24.59c.19-1.38-.23-2.29-1.08-2.4s-1.52.63-1.71,2,.22,2.35,1.08,2.47S490,134.61,490.15,133.21Z" transform="translate(-0.85 -0.13)"/><path d="M493.26,130.15l1.41.2-.78,5.61,2.48.35-.19,1.32-3.89-.54Z" transform="translate(-0.85 -0.13)"/><path d="M498.23,130.85l1.41.2-1,6.93-1.42-.2Z" transform="translate(-0.85 -0.13)"/><path d="M503.83,131.5a2.57,2.57,0,0,1,1.73,1.17l-.91.85a1.49,1.49,0,0,0-1-.67c-.87-.12-1.68.63-1.87,2s.29,2.34,1.21,2.46a1.5,1.5,0,0,0,1.27-.44l.65,1.05a2.5,2.5,0,0,1-2.13.75c-1.62-.23-2.78-1.64-2.45-4S502.21,131.28,503.83,131.5Z" transform="translate(-0.85 -0.13)"/><path d="M506.71,132l3.92.55-.18,1.31-2.51-.35-.19,1.39,2.13.3-.18,1.31-2.14-.3-.22,1.6,2.6.36-.18,1.32-4-.56Z" transform="translate(-0.85 -0.13)"/><path d="M514,133.06l1.42.19-.79,5.62,2.48.35-.18,1.31L513,140Z" transform="translate(-0.85 -0.13)"/><path d="M519,133.75l1.41.2-1,6.93-1.42-.2Z" transform="translate(-0.85 -0.13)"/><path d="M521.84,134.16l1.45.2,1.16,3.68.4,1.61h0c0-.74.07-1.74.18-2.56l.34-2.44,1.35.19-1,6.93-1.45-.21-1.15-3.68-.41-1.6h0c0,.77-.06,1.72-.18,2.53l-.34,2.46-1.35-.19Z" transform="translate(-0.85 -0.13)"/><path d="M528.22,135.05l3.93.56-.19,1.31-2.51-.35-.19,1.39,2.13.3-.18,1.31-2.13-.3-.23,1.6,2.61.36-.18,1.32-4-.56Z" transform="translate(-0.85 -0.13)"/><path d="M535.49,136.07l1.77.25c1.91.27,3,1.49,2.66,3.87s-1.72,3.33-3.55,3.08l-1.85-.26Zm.89,5.91c1.06.15,1.86-.33,2.09-2s-.41-2.27-1.47-2.42l-.28,0-.61,4.4Z" transform="translate(-0.85 -0.13)"/><path d="M540.81,140.32c.31-2.27,1.64-3.4,3.34-3.16s2.66,1.71,2.35,4-1.67,3.46-3.35,3.22S540.49,142.58,540.81,140.32Zm4.23.6c.2-1.39-.22-2.29-1.08-2.41s-1.51.63-1.7,2,.22,2.35,1.08,2.47S544.85,142.31,545,140.92Z" transform="translate(-0.85 -0.13)"/><path d="M550.15,138.13l1.45.2,1.16,3.68.4,1.61h0c0-.74.07-1.74.18-2.55l.35-2.45,1.34.19-1,6.93-1.44-.2-1.15-3.69-.41-1.59h0c0,.78-.06,1.72-.18,2.53l-.34,2.46-1.34-.19Z" transform="translate(-0.85 -0.13)"/><path d="M555.76,142.42c.32-2.27,1.65-3.4,3.34-3.17s2.66,1.71,2.35,4-1.66,3.46-3.35,3.22S555.45,144.68,555.76,142.42ZM560,143c.19-1.38-.23-2.29-1.08-2.41s-1.51.64-1.71,2,.23,2.35,1.08,2.47S559.81,144.4,560,143Z" transform="translate(-0.85 -0.13)"/><path d="M564,141.41l-1.71-.24.18-1.32,4.86.68-.18,1.32-1.72-.24-.79,5.62-1.42-.21Z" transform="translate(-0.85 -0.13)"/><path d="M573,141.2a2.53,2.53,0,0,1,1.73,1.16l-.91.86a1.45,1.45,0,0,0-1-.67c-.88-.12-1.68.62-1.88,2s.29,2.33,1.21,2.46a1.52,1.52,0,0,0,1.28-.45l.65,1.06a2.5,2.5,0,0,1-2.14.74c-1.62-.23-2.77-1.64-2.45-4S571.35,141,573,141.2Z" transform="translate(-0.85 -0.13)"/><path d="M578.27,149.14l-.85-2.67-.78-.1-.35,2.5-1.41-.2,1-6.93,2.26.31c1.33.19,2.34.85,2.11,2.5a2.06,2.06,0,0,1-1.39,1.84l1,3Zm-1.46-4,.73.1c.74.11,1.2-.19,1.29-.87s-.28-1-1-1.07l-.73-.1Z" transform="translate(-0.85 -0.13)"/><path d="M581,146c.32-2.27,1.66-3.4,3.34-3.17s2.67,1.71,2.35,4-1.66,3.47-3.35,3.23S580.66,148.22,581,146Zm4.24.59c.19-1.38-.23-2.29-1.09-2.41s-1.51.64-1.7,2,.23,2.35,1.07,2.47S585,147.94,585.22,146.55Z" transform="translate(-0.85 -0.13)"/><path d="M588,148.53a2.57,2.57,0,0,0,1.46.94c.58.08.9-.14,1-.55s-.27-.62-.78-1l-.77-.49a2,2,0,0,1-1-2.07,2.12,2.12,0,0,1,2.51-1.76,2.78,2.78,0,0,1,1.89,1.21l-.85.88a2,2,0,0,0-1.22-.74c-.49-.06-.83.13-.89.52s.33.64.84,1l.75.47a1.93,1.93,0,0,1,1,2.05,2.19,2.19,0,0,1-2.66,1.82,3.29,3.29,0,0,1-2.18-1.32Z" transform="translate(-0.85 -0.13)"/><path d="M593.21,149.25a2.4,2.4,0,0,0,1.44.94c.59.08.91-.13,1-.55s-.28-.62-.79-.95l-.76-.5a2,2,0,0,1-1-2.07,2.13,2.13,0,0,1,2.52-1.75,2.78,2.78,0,0,1,1.89,1.2l-.85.89a2,2,0,0,0-1.23-.74c-.49-.07-.83.12-.88.52s.33.63.83.95l.76.47a1.91,1.91,0,0,1,1,2.06,2.19,2.19,0,0,1-2.67,1.82,3.31,3.31,0,0,1-2.17-1.33Z" transform="translate(-0.85 -0.13)"/></g><g class="cls-5"><path d="M639.68,150.91l2.29.32c1.35.18,2.37.89,2.13,2.57a2.24,2.24,0,0,1-2.77,2l-.88-.13-.33,2.36-1.41-.2Zm1.73,3.64a1,1,0,0,0,1.31-.94c.1-.73-.26-1.05-1-1.15l-.79-.11-.3,2.09Z" transform="translate(-0.85 -0.13)"/><path d="M644.72,155.11c.32-2.26,1.66-3.4,3.35-3.16s2.66,1.71,2.34,4-1.66,3.46-3.35,3.23S644.41,157.38,644.72,155.11Zm4.24.59c.19-1.38-.23-2.28-1.08-2.4s-1.51.64-1.71,2,.22,2.35,1.08,2.47S648.76,157.1,649,155.7Z" transform="translate(-0.85 -0.13)"/><path d="M652.07,152.64l1.41.2-.78,5.62,2.48.34-.19,1.32-3.89-.54Z" transform="translate(-0.85 -0.13)"/><path d="M657,153.34l1.41.2-1,6.93-1.41-.2Z" transform="translate(-0.85 -0.13)"/><path d="M662.65,154a2.55,2.55,0,0,1,1.72,1.17l-.91.85a1.46,1.46,0,0,0-1-.66c-.88-.13-1.68.62-1.87,2s.28,2.34,1.2,2.47a1.55,1.55,0,0,0,1.28-.45l.64,1.06a2.5,2.5,0,0,1-2.13.74c-1.62-.23-2.78-1.64-2.45-4S661,153.77,662.65,154Z" transform="translate(-0.85 -0.13)"/><path d="M665.52,154.53l3.93.55-.19,1.32-2.51-.36-.19,1.4,2.13.3-.18,1.3-2.14-.3-.22,1.6,2.61.37-.19,1.32-4-.57Z" transform="translate(-0.85 -0.13)"/><path d="M672.79,155.55l1.41.2-.79,5.61,2.48.35-.18,1.32-3.89-.55Z" transform="translate(-0.85 -0.13)"/><path d="M677.76,156.24l1.41.2-1,6.94-1.42-.2Z" transform="translate(-0.85 -0.13)"/><path d="M680.66,156.65l1.44.2,1.16,3.68.4,1.62h0c0-.74.07-1.74.19-2.56l.34-2.44,1.34.19-1,6.93-1.45-.2L682,160.38l-.41-1.59h0c0,.78-.06,1.72-.18,2.53l-.34,2.46-1.34-.18Z" transform="translate(-0.85 -0.13)"/><path d="M687,157.55l3.92.55-.19,1.31-2.5-.35-.2,1.39,2.14.3-.19,1.31-2.13-.3-.23,1.6,2.61.36-.18,1.32-4-.56Z" transform="translate(-0.85 -0.13)"/><path d="M694.3,158.57l1.77.24c1.91.27,3,1.5,2.66,3.88s-1.71,3.33-3.55,3.07l-1.85-.26Zm.89,5.9c1.06.15,1.86-.33,2.09-2s-.41-2.28-1.47-2.42l-.27,0-.62,4.4Z" transform="translate(-0.85 -0.13)"/><path d="M699.62,162.81c.31-2.26,1.65-3.4,3.34-3.16s2.66,1.71,2.35,4-1.66,3.46-3.35,3.22S699.31,165.08,699.62,162.81Zm4.24.6c.19-1.38-.23-2.29-1.09-2.41s-1.5.64-1.69,2,.21,2.35,1.07,2.47S703.66,164.8,703.86,163.41Z" transform="translate(-0.85 -0.13)"/><path d="M709,160.62l1.46.21,1.15,3.67.4,1.62h0c0-.74.06-1.73.18-2.55l.34-2.45,1.35.19-1,6.93-1.45-.2-1.15-3.68-.41-1.6h0c0,.78-.07,1.72-.18,2.54l-.34,2.45-1.35-.18Z" transform="translate(-0.85 -0.13)"/><path d="M714.58,164.91c.31-2.27,1.65-3.4,3.34-3.16s2.66,1.7,2.34,4-1.66,3.46-3.35,3.23S714.26,167.17,714.58,164.91Zm4.23.59c.19-1.38-.23-2.28-1.08-2.41s-1.51.64-1.7,2,.22,2.36,1.07,2.47S718.62,166.9,718.81,165.5Z" transform="translate(-0.85 -0.13)"/><path d="M722.76,163.9l-1.71-.24.18-1.32,4.86.69-.18,1.31-1.72-.24-.79,5.62-1.42-.2Z" transform="translate(-0.85 -0.13)"/><path d="M731.78,163.69a2.54,2.54,0,0,1,1.72,1.16l-.91.86a1.49,1.49,0,0,0-1-.67c-.88-.12-1.68.63-1.87,2s.28,2.34,1.2,2.46a1.51,1.51,0,0,0,1.28-.44l.65,1a2.49,2.49,0,0,1-2.13.74c-1.63-.22-2.78-1.63-2.46-4S730.17,163.47,731.78,163.69Z" transform="translate(-0.85 -0.13)"/><path d="M737.08,171.63l-.85-2.66-.78-.11-.35,2.5-1.41-.2,1-6.93,2.26.31c1.32.19,2.33.85,2.11,2.5a2.08,2.08,0,0,1-1.39,1.84l1,3Zm-1.45-4,.72.11c.74.1,1.2-.19,1.29-.88s-.27-1-1-1.07l-.73-.1Z" transform="translate(-0.85 -0.13)"/><path d="M739.8,168.45c.31-2.27,1.65-3.4,3.34-3.16s2.66,1.7,2.35,4-1.66,3.46-3.36,3.22S739.48,170.71,739.8,168.45ZM744,169c.2-1.38-.23-2.29-1.08-2.41s-1.51.64-1.7,2,.22,2.35,1.07,2.47S743.84,170.43,744,169Z" transform="translate(-0.85 -0.13)"/><path d="M746.85,171a2.43,2.43,0,0,0,1.45.94c.58.08.9-.13,1-.55s-.28-.62-.79-.95l-.77-.5a2,2,0,0,1-1-2.07,2.12,2.12,0,0,1,2.52-1.75,2.75,2.75,0,0,1,1.89,1.2l-.86.88a2,2,0,0,0-1.22-.73c-.49-.07-.83.12-.89.52s.34.63.84,1l.76.47a1.94,1.94,0,0,1,1,2.06,2.2,2.2,0,0,1-2.67,1.82A3.31,3.31,0,0,1,745.9,172Z" transform="translate(-0.85 -0.13)"/><path d="M752,171.74a2.5,2.5,0,0,0,1.44.95c.59.08.92-.14,1-.55s-.27-.63-.79-1l-.76-.5a2,2,0,0,1-1-2.07,2.12,2.12,0,0,1,2.51-1.75,2.78,2.78,0,0,1,1.89,1.2l-.85.89a2,2,0,0,0-1.22-.74c-.5-.07-.83.13-.89.52s.33.63.84,1l.75.48a1.89,1.89,0,0,1,1,2.05,2.19,2.19,0,0,1-2.66,1.82,3.29,3.29,0,0,1-2.18-1.33Z" transform="translate(-0.85 -0.13)"/></g><polygon class="cls-6" points="840.46 77.2 0 164.36 0 146.96 840.46 60.84 840.46 77.2"/><g class="cls-7"><path d="M190.09,131.83l2.31-.22c1.36-.14,2.52.31,2.68,2a2.24,2.24,0,0,1-2.23,2.6l-.88.08.23,2.37-1.42.14Zm2.55,3.14a1,1,0,0,0,1.05-1.23c-.07-.72-.5-1-1.26-.87l-.79.07.21,2.11Z" transform="translate(-0.85 -0.13)"/><path d="M196,134.74c-.23-2.28.8-3.7,2.51-3.87s3,1,3.21,3.3-.79,3.76-2.5,3.93S196.22,137,196,134.74Zm4.26-.42c-.13-1.39-.76-2.18-1.62-2.09s-1.32,1-1.18,2.36.77,2.24,1.63,2.15S200.4,135.71,200.26,134.32Z" transform="translate(-0.85 -0.13)"/><path d="M202.57,130.6l1.43-.14.55,5.64,2.5-.24.13,1.32-3.92.39Z" transform="translate(-0.85 -0.13)"/><path d="M207.58,130.11,209,130l.68,7-1.42.14Z" transform="translate(-0.85 -0.13)"/><path d="M213.2,129.43a2.56,2.56,0,0,1,2,.72l-.7,1a1.44,1.44,0,0,0-1.11-.42c-.88.08-1.49,1-1.35,2.4s.82,2.21,1.75,2.11a1.49,1.49,0,0,0,1.14-.74l.88.88a2.48,2.48,0,0,1-1.9,1.22c-1.64.16-3.09-.93-3.32-3.28S211.57,129.58,213.2,129.43Z" transform="translate(-0.85 -0.13)"/><path d="M216.13,129.27l4-.39.13,1.32-2.53.25.14,1.4,2.15-.21.13,1.31-2.15.21.16,1.61,2.62-.26.13,1.32-4,.4Z" transform="translate(-0.85 -0.13)"/><path d="M223.44,128.55l1.43-.14.55,5.63,2.5-.24.13,1.33-3.92.38Z" transform="translate(-0.85 -0.13)"/><path d="M228.46,128.05l1.42-.14.68,7-1.42.14Z" transform="translate(-0.85 -0.13)"/><path d="M231.37,127.77l1.46-.15,2,3.3.77,1.48h0c-.13-.74-.34-1.71-.42-2.53l-.24-2.46,1.35-.13.69,7-1.46.15-2-3.31-.77-1.46h0c.13.77.35,1.69.43,2.51l.24,2.47-1.35.13Z" transform="translate(-0.85 -0.13)"/><path d="M237.8,127.13l3.95-.39.13,1.33-2.53.24.14,1.4,2.15-.21.13,1.32-2.15.21.16,1.6,2.62-.26.13,1.33-4,.4Z" transform="translate(-0.85 -0.13)"/><path d="M245.11,126.41l1.78-.17c1.93-.19,3.28.74,3.51,3.13s-.89,3.64-2.74,3.82l-1.86.19Zm2.26,5.53c1.07-.11,1.73-.76,1.57-2.42s-.93-2.11-2-2l-.27,0,.44,4.42Z" transform="translate(-0.85 -0.13)"/><path d="M251.3,129.29c-.22-2.28.81-3.7,2.51-3.87s3,1,3.22,3.3-.8,3.76-2.5,3.92S251.52,131.56,251.3,129.29Zm4.27-.42c-.14-1.39-.76-2.18-1.63-2.09s-1.32,1-1.18,2.36.77,2.23,1.63,2.15S255.71,130.26,255.57,128.87Z" transform="translate(-0.85 -0.13)"/><path d="M259.89,125l1.46-.15,2,3.3.77,1.48h0c-.14-.73-.35-1.7-.43-2.52l-.24-2.46,1.35-.13.69,7-1.46.15-2-3.32-.77-1.45h0c.13.77.34,1.69.42,2.51l.24,2.47-1.35.13Z" transform="translate(-0.85 -0.13)"/><path d="M266.37,127.8c-.23-2.28.8-3.69,2.5-3.86s3,1,3.22,3.29-.8,3.77-2.51,3.93S266.59,130.08,266.37,127.8Zm4.26-.42c-.13-1.39-.76-2.17-1.62-2.09s-1.32,1-1.19,2.37.77,2.23,1.63,2.14S270.77,128.78,270.63,127.38Z" transform="translate(-0.85 -0.13)"/><path d="M274.11,124.89l-1.74.17-.13-1.32,4.9-.49.13,1.32-1.73.18.55,5.64-1.43.14Z" transform="translate(-0.85 -0.13)"/><path d="M282.84,122.56a2.57,2.57,0,0,1,2,.73l-.69,1a1.43,1.43,0,0,0-1.12-.42c-.88.08-1.49,1-1.35,2.39s.82,2.21,1.76,2.12a1.55,1.55,0,0,0,1.14-.74l.87.87a2.49,2.49,0,0,1-1.9,1.23c-1.64.16-3.09-.94-3.32-3.28S281.21,122.72,282.84,122.56Z" transform="translate(-0.85 -0.13)"/><path d="M289.87,129l-1.45-2.39-.79.08.25,2.51-1.42.14-.69-7,2.28-.22c1.33-.13,2.47.27,2.64,1.93a2,2,0,0,1-.93,2.11l1.71,2.65Zm-2.36-3.56.73-.08c.75-.07,1.12-.46,1.06-1.15s-.5-.87-1.25-.8l-.73.07Z" transform="translate(-0.85 -0.13)"/><path d="M291.77,125.3c-.22-2.28.81-3.7,2.51-3.87s3,1,3.22,3.3-.8,3.76-2.5,3.93S292,127.57,291.77,125.3Zm4.27-.42c-.14-1.39-.76-2.18-1.63-2.09s-1.32,1-1.18,2.36.77,2.23,1.63,2.15S296.18,126.27,296,124.88Z" transform="translate(-0.85 -0.13)"/><path d="M299.24,126.13a2.47,2.47,0,0,0,1.64.58c.59-.06.85-.34.81-.76s-.41-.54-1-.75l-.86-.3a2,2,0,0,1-1.46-1.78,2.13,2.13,0,0,1,2.05-2.29,2.75,2.75,0,0,1,2.12.72l-.63,1.06a2,2,0,0,0-1.36-.43c-.49,0-.78.32-.74.72s.47.53,1,.72l.85.29a1.9,1.9,0,0,1,1.43,1.76,2.2,2.2,0,0,1-2.17,2.4,3.31,3.31,0,0,1-2.43-.78Z" transform="translate(-0.85 -0.13)"/><path d="M304.46,125.62a2.44,2.44,0,0,0,1.62.57c.59-.06.86-.34.82-.76s-.41-.54-1-.74l-.85-.3a2,2,0,0,1-1.46-1.78,2.13,2.13,0,0,1,2-2.3,2.85,2.85,0,0,1,2.13.72l-.63,1.07a2,2,0,0,0-1.37-.43c-.49,0-.78.32-.74.71s.48.54,1,.73l.85.28a1.94,1.94,0,0,1,1.44,1.77,2.19,2.19,0,0,1-2.17,2.39,3.29,3.29,0,0,1-2.43-.77Z" transform="translate(-0.85 -0.13)"/></g><g class="cls-7"><path d="M30.71,148.68l2.31-.23c1.36-.14,2.52.31,2.68,2a2.24,2.24,0,0,1-2.23,2.6l-.88.09.23,2.36-1.42.14Zm2.55,3.13a1,1,0,0,0,1.05-1.22c-.07-.73-.5-1-1.26-.88l-.79.08.21,2.1Z" transform="translate(-0.85 -0.13)"/><path d="M36.61,151.58c-.22-2.28.81-3.7,2.52-3.87s3,1,3.21,3.3-.79,3.76-2.5,3.93S36.84,153.85,36.61,151.58Zm4.27-.42c-.14-1.39-.76-2.17-1.62-2.09s-1.32,1-1.18,2.36.77,2.24,1.63,2.15S41,152.55,40.88,151.16Z" transform="translate(-0.85 -0.13)"/><path d="M43.19,147.45l1.43-.14.55,5.64,2.5-.25L47.8,154l-3.92.39Z" transform="translate(-0.85 -0.13)"/><path d="M48.2,147l1.43-.14.68,7-1.42.14Z" transform="translate(-0.85 -0.13)"/><path d="M53.82,146.27a2.53,2.53,0,0,1,2,.72l-.69,1a1.44,1.44,0,0,0-1.11-.42c-.88.09-1.49,1-1.35,2.4s.82,2.21,1.75,2.12a1.51,1.51,0,0,0,1.14-.74l.88.87a2.45,2.45,0,0,1-1.9,1.22c-1.64.17-3.09-.93-3.32-3.27S52.19,146.43,53.82,146.27Z" transform="translate(-0.85 -0.13)"/><path d="M56.75,146.11l3.94-.39.14,1.32-2.53.25.14,1.4,2.15-.21.13,1.31-2.15.22.15,1.6,2.63-.26.13,1.33-4,.39Z" transform="translate(-0.85 -0.13)"/><path d="M64.06,145.39l1.42-.14.56,5.64,2.5-.25.13,1.33-3.92.39Z" transform="translate(-0.85 -0.13)"/><path d="M69.07,144.89l1.42-.13.69,7-1.42.14Z" transform="translate(-0.85 -0.13)"/><path d="M72,144.61l1.46-.14,2,3.29.77,1.48h0c-.13-.73-.34-1.71-.42-2.53l-.24-2.45,1.35-.14.69,7-1.46.14-2-3.31-.77-1.46h0c.13.76.35,1.68.42,2.5l.25,2.47-1.35.13Z" transform="translate(-0.85 -0.13)"/><path d="M78.42,144l4-.39.13,1.32-2.53.25.14,1.4,2.15-.21.13,1.31-2.15.21.16,1.6,2.62-.25.13,1.32-4,.4Z" transform="translate(-0.85 -0.13)"/><path d="M85.73,143.25l1.78-.17c1.93-.19,3.28.74,3.51,3.14s-.89,3.63-2.74,3.82l-1.86.18ZM88,148.78c1.07-.1,1.73-.75,1.57-2.42s-.93-2.11-2-2l-.27,0,.44,4.43Z" transform="translate(-0.85 -0.13)"/><path d="M91.92,146.13c-.23-2.28.81-3.69,2.51-3.86s3,1,3.22,3.29-.8,3.76-2.51,3.93S92.14,148.4,91.92,146.13Zm4.27-.42c-.14-1.39-.77-2.17-1.63-2.09s-1.32,1-1.18,2.36.77,2.24,1.63,2.15S96.32,147.11,96.19,145.71Z" transform="translate(-0.85 -0.13)"/><path d="M100.51,141.8l1.46-.15,2,3.3.76,1.48h0c-.14-.73-.35-1.71-.43-2.53l-.24-2.45,1.35-.14.69,7-1.46.14-2-3.31-.77-1.46h0c.12.76.34,1.68.42,2.5l.24,2.47-1.35.13Z" transform="translate(-0.85 -0.13)"/><path d="M107,144.64c-.22-2.28.81-3.69,2.51-3.86s3,1,3.22,3.3-.8,3.76-2.51,3.92S107.21,146.92,107,144.64Zm4.27-.42c-.14-1.38-.76-2.17-1.62-2.08s-1.32,1-1.19,2.36.77,2.23,1.63,2.15S111.39,145.62,111.25,144.22Z" transform="translate(-0.85 -0.13)"/><path d="M114.73,141.73l-1.74.17-.13-1.32,4.9-.48.13,1.32-1.73.17.55,5.64-1.43.14Z" transform="translate(-0.85 -0.13)"/><path d="M123.45,139.4a2.62,2.62,0,0,1,2,.73l-.7,1.05a1.39,1.39,0,0,0-1.11-.42c-.88.08-1.49,1-1.35,2.4s.82,2.2,1.75,2.11a1.52,1.52,0,0,0,1.15-.74l.87.88a2.52,2.52,0,0,1-1.9,1.22c-1.64.16-3.09-.93-3.32-3.28S121.83,139.56,123.45,139.4Z" transform="translate(-0.85 -0.13)"/><path d="M130.49,145.88l-1.45-2.4-.79.08.25,2.51-1.42.14-.69-7,2.27-.22c1.34-.13,2.48.28,2.65,1.93a2.06,2.06,0,0,1-.93,2.12l1.71,2.65Zm-2.36-3.57.73-.07c.74-.08,1.12-.47,1.06-1.15s-.5-.88-1.25-.81l-.74.08Z" transform="translate(-0.85 -0.13)"/><path d="M132.39,142.14c-.23-2.28.81-3.69,2.51-3.86s3,1,3.22,3.29-.8,3.76-2.51,3.93S132.62,144.41,132.39,142.14Zm4.27-.42c-.14-1.39-.77-2.17-1.63-2.09s-1.32,1-1.18,2.37.77,2.23,1.63,2.14S136.79,143.12,136.66,141.72Z" transform="translate(-0.85 -0.13)"/><path d="M139.86,143a2.49,2.49,0,0,0,1.64.57c.59-.06.85-.34.81-.76s-.41-.54-1-.74l-.86-.31A2,2,0,0,1,139,140a2.13,2.13,0,0,1,2.05-2.29,2.79,2.79,0,0,1,2.12.72l-.63,1.06a2,2,0,0,0-1.36-.42c-.5.05-.78.31-.74.71s.47.53,1,.73l.85.28a1.9,1.9,0,0,1,1.43,1.76,2.2,2.2,0,0,1-2.17,2.4,3.33,3.33,0,0,1-2.43-.77Z" transform="translate(-0.85 -0.13)"/><path d="M145.07,142.46a2.44,2.44,0,0,0,1.63.58c.59-.06.86-.35.82-.77s-.41-.53-1-.74l-.85-.3a2,2,0,0,1-1.46-1.78,2.11,2.11,0,0,1,2-2.29,2.77,2.77,0,0,1,2.12.72l-.62,1.06a1.93,1.93,0,0,0-1.37-.42c-.49,0-.78.31-.74.7s.48.54,1,.73l.85.29A1.91,1.91,0,0,1,149,142a2.2,2.2,0,0,1-2.17,2.39,3.3,3.3,0,0,1-2.43-.78Z" transform="translate(-0.85 -0.13)"/></g><g class="cls-7"><path d="M333.78,117.83l2.3-.23c1.36-.13,2.52.31,2.69,2a2.25,2.25,0,0,1-2.24,2.6l-.88.09.24,2.36-1.43.14Zm2.54,3.13a1,1,0,0,0,1.06-1.22c-.08-.73-.51-1-1.26-.88l-.8.07.21,2.11Z" transform="translate(-0.85 -0.13)"/><path d="M339.68,120.73c-.22-2.28.81-3.7,2.52-3.87s3,1,3.21,3.3-.8,3.76-2.51,3.93S339.9,123,339.68,120.73Zm4.26-.42c-.13-1.39-.75-2.17-1.62-2.09s-1.31,1-1.18,2.36.77,2.23,1.63,2.15S344.09,121.7,343.94,120.31Z" transform="translate(-0.85 -0.13)"/><path d="M346.26,116.6l1.42-.14.56,5.64,2.49-.25.13,1.33-3.92.38Z" transform="translate(-0.85 -0.13)"/><path d="M351.27,116.1l1.42-.14.69,7-1.43.14Z" transform="translate(-0.85 -0.13)"/><path d="M356.88,115.42a2.56,2.56,0,0,1,2,.72l-.69,1a1.46,1.46,0,0,0-1.12-.42c-.88.09-1.48,1-1.35,2.4s.83,2.21,1.76,2.12a1.55,1.55,0,0,0,1.14-.74l.87.87a2.47,2.47,0,0,1-1.9,1.23c-1.64.16-3.09-.94-3.32-3.28S355.25,115.58,356.88,115.42Z" transform="translate(-0.85 -0.13)"/><path d="M359.81,115.26l3.95-.39.13,1.32-2.53.26.14,1.39,2.15-.21.13,1.32-2.15.21.16,1.6,2.62-.26.13,1.33-4,.4Z" transform="translate(-0.85 -0.13)"/><path d="M367.13,114.54l1.42-.14.56,5.64,2.49-.25.13,1.33-3.91.38Z" transform="translate(-0.85 -0.13)"/><path d="M372.14,114.05l1.42-.15.69,7-1.43.14Z" transform="translate(-0.85 -0.13)"/><path d="M375.05,113.76l1.46-.15,2,3.3.77,1.48h0c-.13-.74-.34-1.71-.43-2.53l-.24-2.46,1.35-.13.69,7-1.46.14-2-3.31-.77-1.46h0c.14.76.35,1.68.43,2.5l.24,2.47-1.35.14Z" transform="translate(-0.85 -0.13)"/><path d="M381.48,113.12l3.95-.39.13,1.33-2.53.24.14,1.4,2.15-.21.13,1.32-2.15.21.16,1.6,2.63-.25.13,1.32-4.05.4Z" transform="translate(-0.85 -0.13)"/><path d="M388.8,112.4l1.78-.17c1.93-.19,3.27.74,3.51,3.13s-.9,3.64-2.74,3.82l-1.86.19Zm2.25,5.53c1.08-.1,1.73-.76,1.57-2.42s-.93-2.11-2-2l-.27,0,.43,4.43Z" transform="translate(-0.85 -0.13)"/><path d="M395,115.28c-.22-2.28.81-3.7,2.51-3.87s3,1,3.22,3.3-.8,3.76-2.5,3.93S395.21,117.55,395,115.28Zm4.27-.42c-.14-1.39-.76-2.17-1.62-2.09s-1.32,1-1.19,2.36.77,2.24,1.64,2.15S399.39,116.26,399.25,114.86Z" transform="translate(-0.85 -0.13)"/><path d="M403.57,111l1.46-.15,2,3.3.77,1.48h0c-.13-.73-.34-1.7-.42-2.52l-.24-2.46,1.35-.13.68,7-1.46.15-2-3.31L405,112.8h0c.13.77.34,1.69.42,2.51l.25,2.47-1.36.13Z" transform="translate(-0.85 -0.13)"/><path d="M410.05,113.79c-.23-2.27.8-3.69,2.51-3.86s3,1,3.22,3.3-.81,3.76-2.51,3.92S410.27,116.07,410.05,113.79Zm4.26-.42c-.13-1.39-.75-2.17-1.62-2.08s-1.32,1-1.18,2.36.76,2.23,1.63,2.15S414.45,114.77,414.31,113.37Z" transform="translate(-0.85 -0.13)"/><path d="M417.79,110.88l-1.73.17-.13-1.32,4.89-.48.14,1.32-1.74.17.56,5.64-1.43.15Z" transform="translate(-0.85 -0.13)"/><path d="M426.52,108.55a2.57,2.57,0,0,1,2,.73l-.69,1a1.43,1.43,0,0,0-1.12-.42c-.88.08-1.48,1-1.35,2.39s.83,2.21,1.76,2.12a1.5,1.5,0,0,0,1.14-.74l.88.88a2.49,2.49,0,0,1-1.9,1.22c-1.64.16-3.1-.94-3.33-3.28S424.9,108.72,426.52,108.55Z" transform="translate(-0.85 -0.13)"/><path d="M433.56,115l-1.46-2.39-.78.08.24,2.51-1.42.14-.69-7,2.28-.23c1.33-.13,2.48.28,2.64,1.93a2.08,2.08,0,0,1-.92,2.12l1.7,2.65Zm-2.37-3.56.74-.07c.74-.08,1.12-.47,1.05-1.15s-.5-.88-1.24-.81l-.74.07Z" transform="translate(-0.85 -0.13)"/><path d="M435.45,111.29c-.22-2.28.81-3.7,2.51-3.86s3,1,3.22,3.29-.8,3.76-2.5,3.93S435.68,113.57,435.45,111.29Zm4.27-.42c-.14-1.39-.76-2.17-1.63-2.09s-1.31,1-1.18,2.36.77,2.24,1.63,2.15S439.86,112.27,439.72,110.87Z" transform="translate(-0.85 -0.13)"/><path d="M442.93,112.13a2.48,2.48,0,0,0,1.63.57c.59-.06.86-.34.82-.76s-.42-.54-1-.74l-.86-.31a2,2,0,0,1-1.45-1.78,2.11,2.11,0,0,1,2-2.29,2.77,2.77,0,0,1,2.12.72l-.63,1.06a1.93,1.93,0,0,0-1.36-.42c-.49,0-.78.31-.74.71s.48.53,1,.72l.85.29a1.89,1.89,0,0,1,1.43,1.76,2.19,2.19,0,0,1-2.16,2.4,3.36,3.36,0,0,1-2.44-.77Z" transform="translate(-0.85 -0.13)"/><path d="M448.14,111.61a2.46,2.46,0,0,0,1.63.58c.59-.06.85-.35.81-.76s-.41-.54-1-.75l-.86-.3a2,2,0,0,1-1.46-1.78,2.13,2.13,0,0,1,2.05-2.29,2.75,2.75,0,0,1,2.12.72l-.63,1.06a2,2,0,0,0-1.36-.43c-.49,0-.78.32-.75.72s.48.53,1.05.72l.84.29a1.91,1.91,0,0,1,1.44,1.76,2.2,2.2,0,0,1-2.17,2.4,3.35,3.35,0,0,1-2.43-.77Z" transform="translate(-0.85 -0.13)"/></g><g class="cls-7"><path d="M479.29,102.46l2.31-.23c1.36-.14,2.52.31,2.68,2a2.24,2.24,0,0,1-2.23,2.6l-.89.09.24,2.36-1.42.14Zm2.55,3.13a1,1,0,0,0,1.05-1.22c-.07-.73-.5-1-1.26-.88l-.79.08.2,2.1Z" transform="translate(-0.85 -0.13)"/><path d="M485.19,105.36c-.22-2.28.81-3.7,2.52-3.86s3,1,3.21,3.29-.79,3.76-2.5,3.93S485.42,107.64,485.19,105.36Zm4.27-.42c-.14-1.39-.76-2.17-1.62-2.09s-1.32,1-1.18,2.36.76,2.24,1.63,2.15S489.6,106.34,489.46,104.94Z" transform="translate(-0.85 -0.13)"/><path d="M491.77,101.23l1.43-.14.55,5.64,2.5-.25.13,1.33-3.92.38Z" transform="translate(-0.85 -0.13)"/><path d="M496.78,100.73l1.42-.14.7,7-1.43.14Z" transform="translate(-0.85 -0.13)"/><path d="M502.4,100.05a2.53,2.53,0,0,1,2,.72l-.69,1a1.46,1.46,0,0,0-1.11-.42c-.88.09-1.49,1-1.35,2.4S502,106,503,105.92a1.53,1.53,0,0,0,1.14-.74l.88.87a2.49,2.49,0,0,1-1.9,1.23c-1.64.16-3.09-.94-3.32-3.28S500.77,100.21,502.4,100.05Z" transform="translate(-0.85 -0.13)"/><path d="M505.33,99.89l3.95-.39.13,1.33-2.53.24.14,1.4,2.15-.21.13,1.31-2.15.22.15,1.6,2.63-.26.13,1.33-4,.4Z" transform="translate(-0.85 -0.13)"/><path d="M512.64,99.17l1.42-.14.56,5.64,2.5-.24.13,1.32-3.92.39Z" transform="translate(-0.85 -0.13)"/><path d="M517.65,98.67l1.43-.13.68,7-1.42.14Z" transform="translate(-0.85 -0.13)"/><path d="M520.57,98.39l1.46-.14,2,3.29.77,1.48h0c-.13-.73-.34-1.71-.42-2.53L524.16,98l1.35-.14.68,7-1.46.14-2-3.31-.77-1.46h0c.14.76.34,1.68.42,2.5l.25,2.47-1.36.14Z" transform="translate(-0.85 -0.13)"/><path d="M527,97.75l4-.38.13,1.32-2.53.25.14,1.4,2.15-.21.13,1.31-2.15.21.16,1.61,2.62-.26.13,1.32-4,.4Z" transform="translate(-0.85 -0.13)"/><path d="M534.32,97l1.78-.17c1.92-.19,3.27.74,3.5,3.14s-.89,3.63-2.74,3.82L535,104Zm2.25,5.53c1.07-.1,1.74-.75,1.57-2.42s-.93-2.11-2-2l-.27,0,.44,4.43Z" transform="translate(-0.85 -0.13)"/><path d="M540.5,99.91c-.23-2.28.8-3.69,2.51-3.87s3,1,3.22,3.3-.81,3.76-2.51,3.93S540.72,102.18,540.5,99.91Zm4.26-.42c-.13-1.39-.75-2.17-1.61-2.09s-1.33,1-1.19,2.37.76,2.23,1.63,2.14S544.91,100.89,544.76,99.49Z" transform="translate(-0.85 -0.13)"/><path d="M549.09,95.58l1.46-.14,2,3.29.78,1.48h0c-.12-.74-.34-1.7-.42-2.53l-.24-2.45,1.36-.14.68,7-1.46.14-2-3.31-.77-1.46h0c.14.77.35,1.69.42,2.51l.25,2.47-1.35.14Z" transform="translate(-0.85 -0.13)"/><path d="M555.56,98.42c-.22-2.27.81-3.69,2.51-3.86s3,1,3.22,3.3-.8,3.76-2.51,3.93S555.79,100.7,555.56,98.42Zm4.27-.42c-.14-1.38-.76-2.17-1.62-2.08s-1.32,1-1.19,2.36.77,2.24,1.63,2.15S560,99.4,559.83,98Z" transform="translate(-0.85 -0.13)"/><path d="M563.3,95.51l-1.72.17-.14-1.32,4.9-.48.13,1.32-1.73.17.56,5.64-1.44.15Z" transform="translate(-0.85 -0.13)"/><path d="M572,93.18a2.57,2.57,0,0,1,2,.73l-.68,1a1.48,1.48,0,0,0-1.12-.42c-.88.08-1.49,1-1.35,2.4s.83,2.21,1.76,2.11a1.52,1.52,0,0,0,1.14-.74l.87.88a2.49,2.49,0,0,1-1.9,1.22c-1.64.17-3.09-.93-3.32-3.27S570.41,93.35,572,93.18Z" transform="translate(-0.85 -0.13)"/><path d="M579.07,99.66l-1.45-2.4-.79.08.25,2.51-1.42.14L575,93l2.27-.22c1.34-.14,2.48.27,2.64,1.92a2.05,2.05,0,0,1-.92,2.12l1.71,2.65Zm-2.36-3.57.73-.07c.75-.08,1.12-.47,1-1.15s-.5-.88-1.24-.81l-.73.08Z" transform="translate(-0.85 -0.13)"/><path d="M581,95.92c-.23-2.28.81-3.69,2.51-3.86s3,1,3.22,3.3-.8,3.75-2.51,3.92S581.19,98.2,581,95.92Zm4.27-.42c-.14-1.39-.76-2.17-1.63-2.09s-1.32,1-1.18,2.36.77,2.24,1.63,2.15S585.37,96.9,585.24,95.5Z" transform="translate(-0.85 -0.13)"/><path d="M588.45,96.76a2.46,2.46,0,0,0,1.63.57c.59-.06.85-.34.81-.76s-.41-.54-1-.74l-.86-.31a2,2,0,0,1-1.46-1.77,2.14,2.14,0,0,1,2-2.3,2.83,2.83,0,0,1,2.13.72l-.63,1.07a2,2,0,0,0-1.36-.43c-.5,0-.78.31-.74.71s.47.53,1,.73l.85.28a1.93,1.93,0,0,1,1.43,1.77,2.19,2.19,0,0,1-2.17,2.39,3.3,3.3,0,0,1-2.43-.77Z" transform="translate(-0.85 -0.13)"/><path d="M593.65,96.24a2.44,2.44,0,0,0,1.63.58c.59-.06.86-.35.82-.76s-.42-.54-1-.74l-.85-.31a2,2,0,0,1-1.46-1.78,2.12,2.12,0,0,1,2-2.29,2.77,2.77,0,0,1,2.12.72l-.62,1.06a2,2,0,0,0-1.37-.43c-.49,0-.78.32-.74.71s.47.54,1,.73l.84.29a1.91,1.91,0,0,1,1.44,1.76,2.2,2.2,0,0,1-2.17,2.4A3.3,3.3,0,0,1,593,97.4Z" transform="translate(-0.85 -0.13)"/></g><g class="cls-7"><path d="M627.73,86.47l2.3-.23c1.37-.14,2.52.31,2.69,2a2.25,2.25,0,0,1-2.24,2.6l-.88.09.24,2.36-1.43.14Zm2.54,3.13c.79-.08,1.13-.5,1.06-1.22s-.51-1-1.26-.89l-.8.09.21,2.1Z" transform="translate(-0.85 -0.13)"/><path d="M633.63,89.37c-.22-2.28.81-3.7,2.52-3.87s3,1,3.21,3.3-.8,3.76-2.51,3.93S633.85,91.65,633.63,89.37ZM637.9,89c-.14-1.39-.76-2.17-1.62-2.09s-1.32,1-1.19,2.36.77,2.24,1.63,2.15S638,90.34,637.9,89Z" transform="translate(-0.85 -0.13)"/><path d="M640.21,85.24l1.42-.14.56,5.64,2.5-.25.13,1.32-3.93.39Z" transform="translate(-0.85 -0.13)"/><path d="M645.22,84.74l1.42-.14.69,7-1.42.14Z" transform="translate(-0.85 -0.13)"/><path d="M650.83,84.06a2.55,2.55,0,0,1,2,.72l-.69,1a1.46,1.46,0,0,0-1.12-.42c-.88.09-1.48,1-1.35,2.4s.83,2.21,1.76,2.12a1.53,1.53,0,0,0,1.14-.75l.88.88a2.51,2.51,0,0,1-1.91,1.23c-1.63.16-3.09-.94-3.32-3.28S649.2,84.22,650.83,84.06Z" transform="translate(-0.85 -0.13)"/><path d="M653.76,83.9l4-.39.14,1.32-2.53.25.13,1.4,2.15-.21.13,1.31-2.15.21.16,1.61,2.62-.26.14,1.33-4,.4Z" transform="translate(-0.85 -0.13)"/><path d="M661.08,83.18,662.5,83l.56,5.64,2.5-.24.13,1.32-3.92.38Z" transform="translate(-0.85 -0.13)"/><path d="M666.09,82.68l1.42-.14.69,7-1.42.14Z" transform="translate(-0.85 -0.13)"/><path d="M669,82.4l1.46-.14,2,3.29.77,1.48h0c-.13-.73-.34-1.71-.43-2.53l-.24-2.45,1.36-.14.68,7-1.46.14-2-3.31-.77-1.46h0c.14.77.35,1.69.43,2.51l.25,2.47-1.36.14Z" transform="translate(-0.85 -0.13)"/><path d="M675.43,81.76l4-.39.12,1.33L677,83l.14,1.39,2.15-.21.13,1.32-2.16.21.16,1.6L680,87l.13,1.32-4,.4Z" transform="translate(-0.85 -0.13)"/><path d="M682.75,81l1.78-.17c1.93-.19,3.27.74,3.51,3.13s-.89,3.64-2.74,3.82l-1.86.19ZM685,86.57c1.07-.1,1.73-.76,1.57-2.42s-.94-2.11-2-2l-.27,0,.44,4.43Z" transform="translate(-0.85 -0.13)"/><path d="M688.93,83.92c-.22-2.28.81-3.7,2.52-3.87s3,1,3.21,3.3-.8,3.76-2.5,3.93S689.16,86.19,688.93,83.92Zm4.27-.42c-.14-1.39-.76-2.17-1.62-2.09s-1.32,1-1.18,2.36.76,2.24,1.63,2.15S693.34,84.9,693.2,83.5Z" transform="translate(-0.85 -0.13)"/><path d="M697.52,79.59l1.47-.14,2,3.29.78,1.48h0c-.13-.74-.34-1.71-.43-2.53l-.23-2.45,1.35-.14.69,7-1.46.14-2-3.31-.77-1.46h0c.14.77.34,1.69.42,2.51l.25,2.47-1.36.13Z" transform="translate(-0.85 -0.13)"/><path d="M704,82.43c-.22-2.27.81-3.69,2.51-3.86s3,1,3.22,3.3-.81,3.75-2.51,3.92S704.22,84.71,704,82.43Zm4.26-.42c-.13-1.39-.75-2.17-1.62-2.09s-1.32,1-1.18,2.37.77,2.23,1.63,2.14S708.41,83.41,708.26,82Z" transform="translate(-0.85 -0.13)"/><path d="M711.74,79.52l-1.73.17-.13-1.32,4.9-.48.13,1.32-1.74.17.56,5.64-1.43.14Z" transform="translate(-0.85 -0.13)"/><path d="M720.47,77.19a2.58,2.58,0,0,1,2,.73l-.69,1a1.42,1.42,0,0,0-1.11-.42c-.88.08-1.49,1-1.35,2.4s.82,2.2,1.75,2.11a1.49,1.49,0,0,0,1.14-.74l.88.88a2.54,2.54,0,0,1-1.9,1.22c-1.64.17-3.09-.94-3.33-3.28S718.85,77.35,720.47,77.19Z" transform="translate(-0.85 -0.13)"/><path d="M727.51,83.67l-1.46-2.4-.78.08.25,2.51-1.43.14-.68-7,2.27-.23c1.34-.13,2.48.28,2.64,1.93a2.08,2.08,0,0,1-.92,2.12l1.71,2.65Zm-2.36-3.57.73-.07c.75-.08,1.12-.47,1-1.15s-.5-.88-1.24-.81l-.74.08Z" transform="translate(-0.85 -0.13)"/><path d="M729.41,79.93c-.23-2.28.81-3.69,2.51-3.86s3,1,3.22,3.29-.81,3.76-2.51,3.93S729.63,82.2,729.41,79.93Zm4.26-.42c-.13-1.39-.76-2.17-1.62-2.09s-1.32,1-1.18,2.36.77,2.24,1.62,2.15S733.81,80.91,733.67,79.51Z" transform="translate(-0.85 -0.13)"/><path d="M736.88,80.77a2.49,2.49,0,0,0,1.64.57c.58-.06.85-.34.81-.76s-.42-.54-1-.74l-.87-.31A2,2,0,0,1,736,77.76a2.12,2.12,0,0,1,2-2.3,2.81,2.81,0,0,1,2.12.72l-.62,1.06a2,2,0,0,0-1.36-.42c-.5,0-.79.31-.75.71s.48.53,1,.73l.85.28a1.91,1.91,0,0,1,1.44,1.76,2.2,2.2,0,0,1-2.17,2.4,3.26,3.26,0,0,1-2.43-.78Z" transform="translate(-0.85 -0.13)"/><path d="M742.09,80.25a2.49,2.49,0,0,0,1.63.58c.59-.06.85-.35.81-.76s-.41-.54-1-.75l-.86-.3a2,2,0,0,1-1.45-1.78,2.11,2.11,0,0,1,2-2.29,2.8,2.8,0,0,1,2.13.72l-.62,1.06a2,2,0,0,0-1.37-.43c-.5,0-.78.32-.74.71s.47.54,1,.73l.85.29A1.89,1.89,0,0,1,746,79.79a2.2,2.2,0,0,1-2.17,2.4,3.3,3.3,0,0,1-2.43-.78Z" transform="translate(-0.85 -0.13)"/></g><polygon class="cls-8" points="635.57 283.92 635.17 308.4 473.02 403.73 401.58 249.2 550.39 159.46 635.57 283.92"/><path class="cls-9" d="M375.57,346.44c-5.25-1.78-8.84-3.78-8.95-6.84h0c.14-3.47,4.73-6.66,15.5-10.64h0c7.33-2.67,15.55-3.15,23.49-3.15h0c4.73,0,9.35.17,13.64.17h0c5.74,0,10.85-.31,14.73-1.74h0c6.74-2,27.25-13.27,44.18-15h0a.15.15,0,0,1,0-.07h0a.68.68,0,0,1,.26-.55h0a.7.7,0,0,1,.46-.15h0a5.74,5.74,0,0,1,1.63.59h0c.64,0,1.28,0,1.91,0h0c6.4,0,12.14,1.78,15.88,6.54h0a72.84,72.84,0,0,0,15.55,1.65H515c1.17-.1,2.77-.15,4.72-.15h0a202.78,202.78,0,0,1,34.17,3.21h0c12.27,2.4,23,6,24.94,12.29h0a14.18,14.18,0,0,1,.56,3.82h0c-.23,12.24-18.64,13.48-30.47,13.54h0c-1.84,0-3.53,0-5-.07h0c-30.61.31-70.86,3.59-102.7,3.87h0c-.91,0-2,.06-3.36.06h0c-13.41,0-46.45-2.05-62.31-7.28Zm6.95-16.37c-10.76,3.85-14.87,7.34-14.72,9.53h0c-.11,1.88,2.91,4,8.13,5.72h0a121.65,121.65,0,0,0,20,4.16h0a350.42,350.42,0,0,0,41.93,3.06h0c1.31,0,2.42,0,3.33-.05h0c31.79-.29,72-3.57,102.74-3.88h0c1.45,0,3.13.07,4.95.07h0c5.91,0,13.34-.38,19.22-2.16h0c5.91-1.81,10.07-4.86,10.07-10.2h0a12.87,12.87,0,0,0-.52-3.51h0c-1.32-5.23-11.82-9.18-24-11.44h0a202.07,202.07,0,0,0-33.95-3.19h0c-1.92,0-3.5.05-4.66.14h-1.2a74.11,74.11,0,0,1-14.56-1.41h0a17.93,17.93,0,0,1,1,1.73h0l-1.06.52a17,17,0,0,0-1.58-2.6h0a69.56,69.56,0,0,1-8.94-2.64h0a86.15,86.15,0,0,1-8.44-3.72h-.13l.07.09h0l-.95.71c-.19-.28-.36-.5-.5-.69h0c-16.61,1.57-37.35,12.88-44.37,15h0c-4.1,1.5-9.32,1.8-15.1,1.8h0c-4.32,0-8.94-.18-13.64-.18h0c-7.89,0-16,.5-23.09,3.09Zm106.56-17.24a71.07,71.07,0,0,0,7.24,2.23h0c-3.36-3.46-8.06-4.83-13.52-4.91h0a65.76,65.76,0,0,0,6.28,2.68Z" transform="translate(-0.85 -0.13)"/><polygon class="cls-10" points="374.52 316.59 367.87 321.51 336.81 343.03 302.56 335.56 349.58 312.65 374.52 316.59"/><polygon class="cls-11" points="522.63 315.05 515.97 319.97 491.42 334.92 447.45 326.25 497.69 311.11 522.63 315.05"/><polygon class="cls-12" points="516.41 121.17 508.01 128.4 510.45 135.41 460.69 169.13 448.24 267.46 469.92 295.56 315.64 354.86 296.96 298.83 218.52 182.64 491.74 28.09 516.41 121.17"/><path class="cls-13" d="M524.27,114.92c-2.31,16.4-16.09,15.33-18.78,13.4S496.41,102,496.41,102L509.13,88.7l5.79,22.55s4.53-4.43,6.84-1.34S524.27,114.92,524.27,114.92Z" transform="translate(-0.85 -0.13)"/><path d="M502.19,76c-3.33,0-14.8,6.29-15.62,15.62s9.55,24.88,9.55,24.88,22.81-9.12,22-10.71C513.47,96.89,509.25,76,502.19,76Z" transform="translate(-0.85 -0.13)"/><path d="M436.68,276.48c-1.93,11.89-3.1,17.91,3.28,18.91,5.71.89,7.24-2.3,10.67-.62,8.8,4.3,12.27,3.67,15.1,3.67,11.24,0,11.13-7.77,3-10.31S454.22,276,454.22,276Z" transform="translate(-0.85 -0.13)"/><path class="cls-14" d="M443.83,278.16c2.27,2,8.09,5.7,10.11,7.32a30,30,0,0,0,16.15,6.11c2,.09,2.83-1.49.73-2.48a34.18,34.18,0,0,1-8.8-4.68c-5.15-3.46-7.17-7.34-8.43-7.55s-4.65,1.21-4.65,1.21Z" transform="translate(-0.85 -0.13)"/><path class="cls-14" d="M484.55,121.67c-4.42,6.63-12.73,20.57-12.73,27.2s-5.39,73.81-8.7,77.13-.78,58.37-.78,58.37l-16.19-.32S433,212.14,435.24,200,433,137.05,447.39,123.8,484.55,121.67,484.55,121.67Z" transform="translate(-0.85 -0.13)"/><path d="M431.52,286.17l18.28.39c.29-1.51,1.51-60.12,2.93-61.71,1.85-2.07,10.22-68.93,10.41-79.07s6.45-10.32,8.1-14.66c0,0-18.13-3.18-18.74-2.76-.35.22-6.72,5.19-12.68,10.26-5.28,20.42-2.76,60-4.45,69.25C433.17,220,431.52,286.17,431.52,286.17Z" transform="translate(-0.85 -0.13)"/><path d="M399,277c-3.46,9-4.67,19.09,1.87,21,5.88,1.72,6.17-1.27,9.55,1,8.63,5.72,13.11,4.65,16.06,5,11.81,1.54,12.75-6.64,4.53-10.42s-12.5-14.2-12.5-14.2Z" transform="translate(-0.85 -0.13)"/><path class="cls-14" d="M406.3,279.73c2.1,2.41,7.71,7.1,9.59,9.07A31.78,31.78,0,0,0,432,297.42c2.1.37,3.18-1.17,1.09-2.51s-5.28-2.47-9.4-7.58-3.62-7-4.92-7.35-7.13.39-7.13.39Z" transform="translate(-0.85 -0.13)"/><path d="M469.74,131c-2.89,7.45-20.31,10.51-23.21,22.52s-6.31,67.88-9.61,67.88S425.8,287.7,425.8,287.7s-28.17,2.78-28.21.44c-1-54.24,8.83-73.32,8.83-73.32s.33-21.69,2.39-39.07,4.29-29.57,4-34.4c-.87-14.47,5.21-26.62,21.12-37C438.76,101.16,469.74,131,469.74,131Z" transform="translate(-0.85 -0.13)"/><path class="cls-13" d="M486.4,43.41c-2.35,2.93-.85,9.21-6,12.62-4.77,3.11-4.05,2.35-4.05,2.35l9.26,21.27s8.1-.48,8.74-2.47c.43-1.3,2.88-3.57,3.55-5.11,1.28-3,4.14-6.77,4.61-6.65C504.18,65.88,486.4,43.41,486.4,43.41Z" transform="translate(-0.85 -0.13)"/><path class="cls-14" d="M499,68.81c3.56,5.91,2.41,5.52,4.13,9.44s-4.49,20.5-12.94,32.6c-2.64,3.74-8.67,8.67-15.17,17.4-2.79,3.75-6.48,8.24-8.26,11.64-1.48,2.83-11.57-5.5-11.57-5.5s5.42-2.66,12.05-16.6c7.35-15.47,19-43.17,26-42.26C497.26,76.06,499,68.81,499,68.81Z" transform="translate(-0.85 -0.13)"/><path class="cls-15" d="M499.8,68.46l7.11,8.09s.37,12.72-9,30.19c-5.41,10.11-17.4,32-19.19,36.05-3.09,2-18.31-.27-19.15-2s28.78-46.2,31.51-52.84c8.93,0,10.68-11.39,7.74-16.83A1.91,1.91,0,0,1,499.8,68.46Z" transform="translate(-0.85 -0.13)"/><path class="cls-16" d="M520.06,46.71c-.51-5.54-5.6-11.54-12.59-14.44-10-4.15-19.29,3.2-22,14.22-2.56,10.47,4,23.25,9.3,26,0,0,3.61,2.74,9.36-1.68,1.61-1.25,6.38-6.91,9.18-10.3C515.67,57.68,521.06,47.65,520.06,46.71Z" transform="translate(-0.85 -0.13)"/><path d="M494.58,75.34C481.88,69.28,480.37,56,480.37,56c-11.56-.35-22.27-.08-28,3.93-7.11,5-12.24,19.89-13.31,21.6-8.36,13.46-9.24,24.23-12.19,35.59-.67,2.61-5.38,12-1.82,14.24,11.85,7.24,32,7.26,35,7.4,0,0,4.17-11.1,7.2-15,4.49-5.83,13.6-10.71,18.82-26.21C491.7,92.9,496,76,494.58,75.34Z" transform="translate(-0.85 -0.13)"/><path class="cls-17" d="M511.3,41.11c-1.45,2.37-7.13,0-10.75.25s-8.56,2.7-9.19,3.55-1.45-3.46-4-2.14-2.06,7.63-1,8.51c1.24,1-2.7,6.23-2.7,6.23a21.91,21.91,0,0,1,2.71-21c7.56-10.73,20.67-9.28,24.41-6.42C516.25,34.24,511.3,41.11,511.3,41.11Z" transform="translate(-0.85 -0.13)"/><path class="cls-18" d="M484.72,39.39c7.88,2.42,18,5,18,5l7-16.37s-10.34-2.67-17,.35C488.46,30.35,484.72,39.39,484.72,39.39Z" transform="translate(-0.85 -0.13)"/><path class="cls-19" d="M500.4,43.3l19,10.39s6.38-9,4.76-14S511.39,27.13,509,28C506.28,28.92,500.4,43.3,500.4,43.3Z" transform="translate(-0.85 -0.13)"/><path class="cls-18" d="M497.2,41.45c1.58,1.07,4.58,11.74,6.23,12.48s19.26,10.61,20.06,9.27-4.46-10-4.46-10Z" transform="translate(-0.85 -0.13)"/><path class="cls-20" d="M492.5,87.44c-5.34.93-13.66-9-16.44-22.65-1-4.79-4.82-9.27-4.82-9.27l-10.41.59s10.65,8.7,1.92,21.59-15.9,10.75-19,8.54c-1.42-1-4.11-7.38-4.11-7.38S423.48,105.68,422,114c6.26,9.17,35.67,27.65,40.63,28.4S486.68,106.09,489.69,99,492.5,87.44,492.5,87.44Z" transform="translate(-0.85 -0.13)"/><path class="cls-16" d="M502,118.91c-6.32-1.76-27.71-15.33-30.31-16.06-4.57-11.19-9.22-24.38-9.22-24.38l-14,.68s-6.22,8.18,7.29,34.4c0,0,7.23,10.42,41.17,14.47C500.28,128.41,502,118.91,502,118.91Z" transform="translate(-0.85 -0.13)"/><path d="M462.56,59.66c-4-2.12-12.9-2.79-16.38,7.32-4.06,11.77,1.26,34.12,1.26,34.12s22-5.14,23.33-6.68S469.71,63.4,462.56,59.66Z" transform="translate(-0.85 -0.13)"/><path class="cls-21" d="M507.78,154.64c7,1.44,7.53.28,13-2.32a52,52,0,0,1,6.66,4.91s-16.2,5.21-23.15.87C507.21,154.34,507.78,154.64,507.78,154.64Z" transform="translate(-0.85 -0.13)"/><path class="cls-22" d="M499.4,120.21s-1.74,23.43-3.18,38.47c10.12,4.34,36.18,2.44,36-.67-.77-11.58-1-38.38-2.71-39S499.4,120.21,499.4,120.21Z" transform="translate(-0.85 -0.13)"/><polygon class="cls-23" points="496.81 120.84 528.01 120.94 528.05 128.27 495.7 128.37 496.81 120.84"/><polygon class="cls-24" points="518.07 122.73 526.31 122.88 526.22 126.35 517.93 126.21 518.07 122.73"/><path class="cls-9" d="M491.05,114.33s15,4.26,16.59,5.14c1.81,1,4.16,4,4.66,4.78a18.65,18.65,0,0,1,2,4.21c.79,1.9-1.37,1.79-2.63.21-1.08-1.33-2.27-2.93-2.27-2.93l-1.63-.85,3.78,5c.38.5,1.59,3.54,2,4.27a1.35,1.35,0,0,1-2.29,1.36,68.18,68.18,0,0,1-4.07-5.49c-.76-1-1.09-1.08-1.09-1.08,2.07,2.8,4.5,6.23,4.63,7.44s-1.92,1.55-3.17-.1a35.14,35.14,0,0,0-4.18-4.14l3.95,4.17a1.29,1.29,0,0,1-1.28.63c-1.42-.18-3.85-1.46-6.11-2.94-3.32-2.19-4.3-2.83-6.9-4.69-1.61-1.14-6.24-.86-6.41-1.19C484.33,123.87,485.93,114.83,491.05,114.33Z" transform="translate(-0.85 -0.13)"/><path class="cls-25" d="M511.31,105.82c1.7-1.79,9.32-2.74,12.08-.06A11.2,11.2,0,0,1,526,111a12,12,0,0,1-.13,3.79c-.61,1.84-1.5,4.69-3.41,5s1.07-3.54.86-5.08-.52-1.59-.52-1.59a18.26,18.26,0,0,0-1,4.14s-2.63,4.93-5.2,5.29c-.87.12.71-1.7,1.76-4.82s.7-4.18.7-4.18a9.64,9.64,0,0,1-.56,3.78c-.83,2.68-2.68,6.41-3.89,6.37-1.43,0-.57-3.1.22-5.62a6.07,6.07,0,0,0,.11-3.28c-.16-.47,1.17,6.35-2.82,7.78-2,.71.29-8.51.05-10.22-.09-.72-1.69-.45-1.61.85.3,4.58-.36,4.71-.93,3.64-1.35-2.53-2.64-3.74-2.29-5.31C508,108.59,511.31,105.82,511.31,105.82Z" transform="translate(-0.85 -0.13)"/><polygon class="cls-4" points="522.16 315.91 496.45 316.03 499.71 295.96 518.54 295.87 522.16 315.91"/><path d="M507.26,309.51h2.62l0-7-2.27,0V300.8a8.29,8.29,0,0,0,3-1.11h2.05l0,9.8h2.26l0,2.27-7.68,0Z" transform="translate(-0.85 -0.13)"/><path class="cls-16" d="M547.32,227.27c-3.3,8.36-4.67,17.5-5.35,20s-15.06,31-14.71,32.76,8.59,6.3,8.59,6.3,22.09-24.62,25.23-32.35,5-21.71,5-21.71Z" transform="translate(-0.85 -0.13)"/><path class="cls-9" d="M529.05,273.41c-.95-1.24-2.41,4.08-4.06,5.61s-7.53,7-8.43,8.33-2.93,4.93-2.91,6.9-1.2,7.19.94,6.5c1.94-.62,1.71-3.18,2-4.49,0-.06,1.4-3.7,1.4-3.7a28.81,28.81,0,0,0-1.47,4.09c-.11.91,2.06,1.86,3.18,1.56,0,0,.69-.48,1.08-.71s-.76.62.63,1.34c1.21.64,3-.91,3-.91s-.49,1.48.83,1.21a12.56,12.56,0,0,0,5.59-3.51,65.36,65.36,0,0,0,5-7.82c1.56-2.91,6-7.44,6-7.44S531.6,276.75,529.05,273.41Z" transform="translate(-0.85 -0.13)"/><path class="cls-14" d="M576.26,235.84c-4.24-2.12-13.31-7.34-14.08-13.12s6.74-19.28,7.72-18.51,13.5,18.13,11.56,24.29S576.26,235.84,576.26,235.84Z" transform="translate(-0.85 -0.13)"/><path d="M555.25,203.63c-3.87,1.54-3.87,6.36-3.87,6.36s-9,22.57-9,24.88c6.55,1.15,18.89,11.86,20.82,11.86s8.19-12.24,10.9-21.5-5.4-20.06-10.8-21.22S555.25,203.63,555.25,203.63Z" transform="translate(-0.85 -0.13)"/><path class="cls-14" d="M639.89,274.89c6.47,3.12,7.93,3.83,10.8,9.74.88,1.79-3.85,10.5-3.85,10.5a56.05,56.05,0,0,1-3.38,10.61c-2.17,5.27-10.32,6.27-16.86,4.15-1.86-.6-3.4-3.05-.59-7.72,2.09-3.47,6.81-6.56,6.37-9.83-1-7.13-7.72-10.61-7.72-10.61Z" transform="translate(-0.85 -0.13)"/><path d="M649,283c-3.67-1.34-7.57,3.38-9.5,9.17s-7.13,14.65-11.57,17.74c-1.23.85,13.5,3.47,16.58-5.79s4.33-12.58,6-15.62C653,283.86,649,283,649,283Z" transform="translate(-0.85 -0.13)"/><path d="M635.46,266.88l8.87,9.64-15.42,14.66s-25.08-17.36-26.23-19.28S635.46,266.88,635.46,266.88Z" transform="translate(-0.85 -0.13)"/><path d="M610.14,283.1c6.46,3.12,10.86,8.47,13.73,14.39.87,1.78-4.19,5.37-4.19,5.37a43.27,43.27,0,0,0-6.68,11c-2.18,5.28-15.24,5.79-21.89,4.34-1.91-.41-5.7-3.43-2.9-8.1,2.09-3.47,11.21-2.78,11.48-6.07.95-11.77-7.24-12.15-7.24-12.15Z" transform="translate(-0.85 -0.13)"/><path d="M597.66,247.6c-8.09-3.47-40.49-14.47-46.28-6.36s-6.94,20.82,2.31,26.61,38.57,35.28,38.57,35.28,26.62-11.56,26.62-15-11.38-15.63-11.38-15.63l-15-10.41Z" transform="translate(-0.85 -0.13)"/><path d="M637.39,232.17c3.86,3.85,13.49,22,9.64,31.24s-15.42,18.52-35.48,15.43-30.86-9.26-33.94-13.88,3.85-17,3.85-17Z" transform="translate(-0.85 -0.13)"/><path class="cls-16" d="M541.16,188.4c6.09,9.93,17.82,17.38,22.18,15.61s8-18.68,4.58-27.09-12.15-13.39-19.8-8.85C539.79,173,536.46,180.67,541.16,188.4Z" transform="translate(-0.85 -0.13)"/><path class="cls-26" d="M537.49,184.35c-4.26-1.39,1-22.43,14.76-24.69s20,7,22.66,13.5,2.29,8.84,4.34,8.59c2.73-.35-13.76,12.34-13.76,12.34s-8.58-2.22-9.09-3.76c-2.12-6.36-6.8-5.7-6.24-3.46.43,1.77.73,3.12.73,3.12l-1.24.53s-7.43-1.58-9.07-2.32S537.49,184.35,537.49,184.35Z" transform="translate(-0.85 -0.13)"/><path class="cls-20" d="M586.38,181.36c4.76-.12,16.9,2.82,26.46,11.53,7.64,7,27,35.87,34.19,53.36-4.92,4-44.54,23.91-59,2.89-5.7-8.28-14.53-13.95-14.53-13.95s3.61-2.54.45-14.78-13.35-15.27-19.67-17.07c0,0,.09,1.49,2.86-3.24,2.2-3.76,4.68-7.34,7.55-9.48C569.58,187,574.81,181.64,586.38,181.36Z" transform="translate(-0.85 -0.13)"/><path class="cls-15" d="M648.28,244.42c-7.21-17.5-27.7-44.61-35.35-51.58-9.55-8.71-21.69-11.65-26.45-11.53a29,29,0,0,0-12.3,2.83c8.24,1.47,47.13,17.09,63.41,67.22C643.21,248.89,647.73,247.44,648.28,244.42Z" transform="translate(-0.85 -0.13)"/><path class="cls-14" d="M577.1,203.21l3.29-1.5a4.32,4.32,0,0,1,5.31.82c1.61,1.7.87,3.21-.78,4.09l-1,.53,2.19,2.38-2.2,1.25Zm6.31,1.93c.84-.43.88-1,.29-1.63a1.57,1.57,0,0,0-2-.26l-.91.43,1.75,1.92Z" transform="translate(-0.85 -0.13)"/><path class="cls-14" d="M587.68,203.2c-2.13-2.23-1.91-4.11.07-5s4.28-.28,6.32,1.75,2.13,4,.32,5.05S589.85,205.48,587.68,203.2Zm4.62-2.36c-1.15-1.15-2.31-1.59-3.12-1.19s-.71,1.35.46,2.56,2.43,1.71,3.26,1.26S593.45,202,592.3,200.84Z" transform="translate(-0.85 -0.13)"/><path class="cls-14" d="M592.15,196.36l1.65-.74,4.74,4.66,2.16-1.18,1.37,1.33-3.71,2.11Z" transform="translate(-0.85 -0.13)"/><path class="cls-14" d="M597,194.15l1.47-.67,5.91,5.61-1.38.8Z" transform="translate(-0.85 -0.13)"/><path class="cls-14" d="M601.85,191.81a3.41,3.41,0,0,1,2.21,0l.22,1.17a1.63,1.63,0,0,0-1.14,0c-.59.28-.48,1.1.56,2.07s2.12,1.37,2.75,1a.73.73,0,0,0,.36-.87l1.59.48a1.33,1.33,0,0,1-.63,1.63c-1.25.72-3.36.39-5.38-1.52S600.55,192.41,601.85,191.81Z" transform="translate(-0.85 -0.13)"/><path class="cls-14" d="M604.14,190.91l2.89-1.33,1.21,1.07-1.68.8.87.78,1.41-.7,1.22,1.08-1.39.73,1,.91,1.68-.91,1.23,1.1-2.79,1.6Z" transform="translate(-0.85 -0.13)"/><polygon class="cls-27" points="364.2 204.04 284.82 257.74 322.28 313.42 167.55 397.82 131.67 259.61 316.34 158.6 364.2 204.04"/><path d="M254.54,280.16c-6.07,2.69-16.51,2.06-18.52,5.43s-3.3,4.28.74,10.35,1.57,15,6.29,21.07,19.42,4,21.06,2.21c4.16-4.51-3.83-8.21-5.18-12.94s.33-3.22,4.37-9.28S254.54,280.16,254.54,280.16Z" transform="translate(-0.85 -0.13)"/><path d="M297.13,292.27c-2.56,6.84-9.28,20-1.22,21.23,8.31,1.29,3-2.87,12.38.55s12.42,2.39,19.59.74c5.55-1.28,4.25-8.68-5.36-9.8-7.12-.81-8.29-5.24-12.57-9.51S297.13,292.27,297.13,292.27Z" transform="translate(-0.85 -0.13)"/><path class="cls-19" d="M267,247.21c11.1-.85,54.82-14.93,64.23-11.52s10.53,13.45,8.13,25.88c-.64,3.36-19.22,42.41-19.22,42.41s-21.68-4.61-27.66-4.61S311,268.18,309,268.18C274.26,268.18,267,247.21,267,247.21Z" transform="translate(-0.85 -0.13)"/><path class="cls-18" d="M278.59,225.6C264.38,219,245,222,245,222c-6.42,15.47-14.56,44-1.71,50.26,0,0,12.34,9.26,49.84,4.69,0,0-27.32-5.27-46,3.87,3.38,9.43,16,27.09,16,27.09s65.57-17.13,69.43-23.28c5.58-8.9,3.85-13.63,2.5-17s-16.26-8.48-49.86-26.26C282.92,240.2,283.79,228,278.59,225.6Z" transform="translate(-0.85 -0.13)"/><path class="cls-14" d="M312.28,200.74c.24,2.23,1.54,13.15,1.15,15.81-1.86,13.22-11.31,21.7-10.41,26.33-11.95,5.2-22,12.74-22.37,10.89-3.2-14.36,23.86-63.46,26.81-64.6S312.28,200.74,312.28,200.74Z" transform="translate(-0.85 -0.13)"/><path d="M302.83,179.53s-14.74-.5-24.68,5.2c-10.15,5.82-18.13,8.61-35,34.14-6.85,10.36-16,34.25-13.89,36.16,0,0,26,14.46,54.09-1.74-.54-23.8,21.48-42.18,26.32-45.42s.29-11.76.29-11.76Z" transform="translate(-0.85 -0.13)"/><path class="cls-13" d="M311.41,206.71c10.22-6.74,18.37-6.64,18.37-6.64l-5.62-24s-5,6.44-19.55,3.69C302.33,179.35,311.41,206.71,311.41,206.71Z" transform="translate(-0.85 -0.13)"/><path class="cls-13" d="M347.58,173.12c.74-9.07-15.45-23-24.05-12.11-15.66,19.78-6.86,33.72-6.86,33.72,2.71,2.94,7.19,6.42,11.21,7,2,.29,4.07-2.92,6.83-5.45,1.61.5,3.42.86,3.84-.25.06-1.79,3.05-7.52,3.27-8.73A28.21,28.21,0,0,0,347.58,173.12Z" transform="translate(-0.85 -0.13)"/><path class="cls-26" d="M327.75,155.71c2.84-1.14,9.06-1.34,14.42,2.5,5.19,3.72,7.44,5.37,9.25,11.14,1.56,5,3,4.19,3,4.19s-6.32,7-10.61,1.25c-.95-1.28-2.26-4.11-5.55-2.95-2.79,1-7.62,7-7.62,7a1.55,1.55,0,0,1-1.25-1.27c-.16-.63.43-1.64-2.08-2.83-3-1.45-4.64,5-5.31,5.88-1.32,1.67-9.27,3.34-9.27,3.34s-6.68-1.54-5.77-4.71c.22-.75,2.69.65,3.27-3.14.48-3.21.81-8.77,1.79-11.27C316.26,154,327.09,156,327.75,155.71Z" transform="translate(-0.85 -0.13)"/><path d="M348.07,179.44a2.92,2.92,0,0,0,1.45,3.88h0a2.91,2.91,0,0,0,3.87-1.43l1.77-3.89a2.92,2.92,0,0,0-1.43-3.87h0a2.93,2.93,0,0,0-3.89,1.43Z" transform="translate(-0.85 -0.13)"/><path d="M331.93,199.22a2.69,2.69,0,0,0,1.33,3.56l8.42,4.24c1.35.63,2.4-.61,3-2l9.52-20.8c.61-1.35.59-2.73-.76-3.35L345,177.1a2.67,2.67,0,0,0-3.55,1.32Z" transform="translate(-0.85 -0.13)"/><path class="cls-14" d="M343,204.77c-.59,1.39-.7,2.53-.26,2.56l2.42.11c.4,0,1.15-1,1.69-2.28l8.44-19.72c.55-1.28.75-2.5.46-2.73l-1.86-1.46c-.32-.28-1.08.63-1.68,2Z" transform="translate(-0.85 -0.13)"/><polygon points="352.05 187.03 371.29 191.82 362.96 208.43 347.27 197.52 352.05 187.03"/><path d="M386,193.8l-9.5,3.66-3.88,10.38,3.15,9.54s.58-.21,3.6-1.74l1.51-3-1.54-3.14s3.24-2.17,3.44-7.59l3.59-.37.85-3.83Z" transform="translate(-0.85 -0.13)"/><path class="cls-14" d="M372.71,190.7l-2.85.61-7.24,16.37a4.22,4.22,0,0,0,1.85,2.69,101.45,101.45,0,0,1,11.27,7l1.91-3.75-3.44-4.52a14.45,14.45,0,0,0,4.91-10.44l6,.09,1.06-4.86Z" transform="translate(-0.85 -0.13)"/><path d="M349,174.82a2,2,0,0,0,.75,2.6l1.95,1a1.82,1.82,0,0,0,2.38-1.1l4.65-10.65A2,2,0,0,0,358,164l-2-.95a1.8,1.8,0,0,0-2.36,1.1Z" transform="translate(-0.85 -0.13)"/><path class="cls-14" d="M353,177c-.42.95-.41,1.9,0,2.1l1.32.65c.38.2,1-.36,1.35-1.23l4.3-10.05a2.5,2.5,0,0,0,.14-2.18L359,165.06c-.34-.39-1,.07-1.38,1Z" transform="translate(-0.85 -0.13)"/><path d="M351,159.52a2.66,2.66,0,0,0,1.32,3.54l12.85,7.29c1.34.62,3.67.05,4.28-1.29l3.24-7.12c.61-1.35-.6-5.22-2-5.83l-13.4-4a2.68,2.68,0,0,0-3.55,1.32Z" transform="translate(-0.85 -0.13)"/><path class="cls-14" d="M365.18,167.25c-.71,1.67-.38,3.16.61,3.33l1.94.34c.73.14,1.72-.79,2.26-2.06l3.38-8.06a2.35,2.35,0,0,0-.25-2.65l-1.6-1.66c-.69-.9-1.62-.48-2.32,1.17Z" transform="translate(-0.85 -0.13)"/><polygon class="cls-28" points="371.35 160.44 368.33 167.84 366.01 167.42 369.7 158.31 371.35 160.44"/><path class="cls-18" d="M299.9,179.21l7.71-1s5.94,23.47,10.06,27.13a42.87,42.87,0,0,0-7.51,5S298.65,186.09,299.9,179.21Z" transform="translate(-0.85 -0.13)"/><path class="cls-16" d="M330.41,198.62c2.25-1.43,2.56-4.49,4.82-6.18s4.94-4.68,6.07-4-.8,2.23-1.64,3.79c-1.41,2.59-1,1.18-1,1.18s.12,1.68,5.59,1.16c4.7-.44,7.08-2.47,7.53-1.81.73,1.11-.51,2-3.07,3.43-1.94,1.06-2,1.26-2,1.26s4.38-1.58,4.92-.58-3.61,3.48-3.61,3.48,3.57-2.34,2.53.14-4.84,3.2-4.84,3.2,4.25-2.27,3.61-.59c-.25.6-3.1,3.23-5.06,3.4-3.47.29-6.82,1-8.87,2.31-.43.26-18.63,22.28-30.85,21.41,0,0-17.94-5-24.31-31.05-2-8.26,13.46-11.42,15.24-9.26s13,19.34,15.36,21.36S330.41,198.62,330.41,198.62Z" transform="translate(-0.85 -0.13)"/><path class="cls-18" d="M298.77,189.75c1.8,5,8.22,16.59,11.78,20.11-5.12,4.07-14.3,16.23-16.74,19.61-1.55,2.15-25.68-28.42-12.63-41.42C287.77,181.47,296.44,183.22,298.77,189.75Z" transform="translate(-0.85 -0.13)"/><path class="cls-19" d="M311.13,210c-3.06-3.12-10.21-16.13-12-21.1-1-2.77-3.43-6-10.44-4.6-2.67,1.06,4.84,19.12,14.77,33.21C305.83,214.87,309.49,211.46,311.13,210Z" transform="translate(-0.85 -0.13)"/><polygon class="cls-29" points="367.69 300.6 374.52 316.59 359.48 314.43 358.76 301.26 367.69 300.6"/><polygon class="cls-4" points="345.16 317.02 353.56 299.06 367.69 300.6 367.87 321.51 345.16 317.02"/><path d="M354.3,313.44c3.55-2.76,6.05-4.72,6.5-6.56.3-1.26-.11-2-1-2.13a3,3,0,0,0-2.19,1l-.89-1.72a4.85,4.85,0,0,1,4-1.53c2.08.25,3.15,2,2.58,4.5-.52,2.22-2.84,4.36-5.17,6.36a14.17,14.17,0,0,1,1.88.15l2.26.4-.65,2.76-7.73-1.46Z" transform="translate(-0.85 -0.13)"/><polygon class="cls-30" points="746.54 92.26 767.62 340.54 642.61 402.79 576.53 133.18 726.97 53.84 746.54 92.26"/><polygon class="cls-31" points="153.46 98.37 178.05 134.47 116.42 188.64 178.05 377.9 0 420.23 0 121.4 131.19 55.51 153.46 98.37"/><path class="cls-19" d="M724.29,114.5c-1.42,2.71-9.68,17.52-11.11,18.38s-3.28-.28-3.28-.28L709.48,145l13-.29Z" transform="translate(-0.85 -0.13)"/><path class="cls-32" d="M712.21,119.16a3.39,3.39,0,0,1,.93,1,2.25,2.25,0,0,1-.08,1.57c-.23.64-1.53,4.78-3.46,7-.17.17-.34,0-.4-.16a4.17,4.17,0,0,1,.39-1.79,1.78,1.78,0,0,0,.75-.28,37,37,0,0,0,1.54-4.82c0-.26-.28-.31-.48-.34A11.5,11.5,0,0,0,712.21,119.16Z" transform="translate(-0.85 -0.13)"/><path class="cls-33" d="M700.72,147s0,.65.15.7.59-.47.59-.47Z" transform="translate(-0.85 -0.13)"/><path class="cls-9" d="M700.71,147a16.64,16.64,0,0,1,.49-3.26l1.83.66a20,20,0,0,1-1.6,2.85Z" transform="translate(-0.85 -0.13)"/><path class="cls-32" d="M701.19,143.79c.13-1,4.41-14.65,4.41-14.65l3.07,1s-5.16,13.37-5.68,14.25C701.89,144.07,701.37,143.86,701.19,143.79Z" transform="translate(-0.85 -0.13)"/><path class="cls-34" d="M710.85,118.82h0l-1.49-.63c0-.13.54-2,2.21-1.45h0c1.64.6.9,2.38.86,2.51l-1.57-.42h0Z" transform="translate(-0.85 -0.13)"/><path class="cls-32" d="M707.28,129.23l-.44-.1,0-.09-1.12-.43c0-.08,3.43-10.27,3.71-10.73l1.54.53c.32.1.83.27,1.53.53,0,.53-3.67,10.54-3.71,10.63l-1.09-.24,0,.09Z" transform="translate(-0.85 -0.13)"/><path class="cls-34" d="M708.64,130.33a.07.07,0,0,0,.08,0l.26-.77s0-.07,0-.09l-3.2-1.09a.07.07,0,0,0-.08,0l-.27.76a.07.07,0,0,0,.05.09Z" transform="translate(-0.85 -0.13)"/><path class="cls-35" d="M705.6,129.14l1.47.49-5,14.49c-.5-.17-.78-.28-.9-.33C701.32,142.79,705.6,129.14,705.6,129.14Z" transform="translate(-0.85 -0.13)"/><path class="cls-35" d="M706.87,129l-1.12-.43c0-.08,3.44-10.31,3.72-10.76.68.26,1.06.38,1.47.54l-3.74,10.83-.36-.09Z" transform="translate(-0.85 -0.13)"/><path class="cls-36" d="M711.51,116.72l-.57,1.65-1.47-.55C709.51,117.71,710.14,116.24,711.51,116.72Z" transform="translate(-0.85 -0.13)"/><path class="cls-36" d="M705.4,129.14l.26-.76a.05.05,0,0,1,.08,0l1.58.54-.3.89-1.58-.55A.06.06,0,0,1,705.4,129.14Z" transform="translate(-0.85 -0.13)"/><path class="cls-16" d="M710.73,130.36c.39,1.37,1,6.18-.46,5.93s-4.08,1.48-3.94-.45c.07-1.07,2.8-2.12,2.8-2.12s-2.58-2.83-.84-3.38S710.73,130.36,710.73,130.36Z" transform="translate(-0.85 -0.13)"/><path class="cls-16" d="M705.46,128.42c-1.19.1-3,.25-3.84,1.65a4.21,4.21,0,0,0-.57,4c.52,1.23,2.74,5.44,2.91,3.92s-.54-5.13.33-5.51S705.46,128.42,705.46,128.42Z" transform="translate(-0.85 -0.13)"/><path class="cls-16" d="M700.51,129.88c-1.48.17-1.84.78-2,1.79s.84,6.31,2.47,6.85,0-2,.41-3.74.93-5.05.93-5.05Z" transform="translate(-0.85 -0.13)"/><path d="M744.46,322c1.11,5.05,1.55,12.4-.76,12.88-8.37,1.7-6.35-1.91-12.54,1.32-4.66,2.46-16.82,2.87-18.61,1.42-1.57-1.27-2.87-7.28,3.91-8.28s10.47-6.92,12.66-10.61a12.48,12.48,0,0,1,6.58-4.92l7.15,1.17Z" transform="translate(-0.85 -0.13)"/><path class="cls-18" d="M744.77,231.53c-4.92,19.82-9,29.5-7.61,32.19s14,54.2,10.14,63.12a81.26,81.26,0,0,1-20.16-4.07l-9.39-61.71,20-66.71Z" transform="translate(-0.85 -0.13)"/><path d="M772.16,323.77l-16.23-1.58s-1,11.78-11.83,14.9c-3.62,1.05-4.35,6.08.18,8.23s14.81,1.91,19.21-2.11,4.53-.43,7.85-2.19,1.65-9.14,1.55-13.62Z" transform="translate(-0.85 -0.13)"/><path class="cls-18" d="M761.74,162.71c11.94,13.28,12.85,26.82,8.62,39.44-4.58,13.75,2.49,51.31,5.11,67.17,6.95,42.18-1.55,66-1.55,66s-5.85.38-21.38-2.4c0,0-5-48.47-6-57.82-.33-3.2-6.26-51.71-13.37-68.31-3.42-8-1.37-29.18-.47-35.51C733.36,167,761.74,162.71,761.74,162.71Z" transform="translate(-0.85 -0.13)"/><path class="cls-19" d="M742.2,270.16c-3.18-8.83-7.12-56.75-10.53-64.75s-1.16-31.19-.26-37.5c.19-1.31,5.81-2.61,10.21-2.93l6,41.69c7.66,43.62,19,98.69,13.83,127.3-3.3.23-10.23-1.09-14.3-1.82C747.13,332.15,750.72,293.8,742.2,270.16Z" transform="translate(-0.85 -0.13)"/><path class="cls-19" d="M721.2,166.9c.11,4.08-.36,21.69-2,25.81-.92,2.27-12,54.81-12.38,71.39-.56,4.52,14.42,58.4,14.48,61.12a67.14,67.14,0,0,0,15,.38S723,269.21,723,266.41c-.23-8.83,15.15-56.45,15-63.23s2.44-37.43,2.44-37.43Z" transform="translate(-0.85 -0.13)"/><path class="cls-37" d="M756.6,72.13c2,4.21,8.14,15.9,7.13,18.56s-10,1.9-12.13-3.37S756.6,72.13,756.6,72.13Z" transform="translate(-0.85 -0.13)"/><path class="cls-37" d="M758,81.7C762.12,84.28,770,93,770.85,97.24S757.09,94,756.32,87.53,758,81.7,758,81.7Z" transform="translate(-0.85 -0.13)"/><path class="cls-16" d="M731.91,80.28c5.51,3.66,11,12.73,4.68,21.84-.74,1.07-6.37,9.51-7.19,10.81-2.28,3.55,14.4,2.1,20.16-1.85,5.08-3.48,12-12.8,15.46-14.16-13.59-6.79-9-22.7-8.32-31.58S731.91,80.28,731.91,80.28Z" transform="translate(-0.85 -0.13)"/><path class="cls-16" d="M750.64,60c-5-11.53-12.68-13.9-21.86-9.91s-10.57,9.18-7.93,21.48a36.32,36.32,0,0,0,5.2,11.48c2.32,3.29,6,12.1,14.39,7.71C749.28,86.11,755.63,71.53,750.64,60Z" transform="translate(-0.85 -0.13)"/><path class="cls-37" d="M731.79,65.58l-12.92.2c-1.92-2-1.25-13.48,13.2-18,13.24-4.1,22,1.35,25.9,13.65,2.44,7.74,1.37,20.72,1.37,20.72S750,78.64,751,75.44c.59-2,1.38-9-3.12-8.35-1.35.18-2.63,2.54-2.63,2.54Z" transform="translate(-0.85 -0.13)"/><path class="cls-19" d="M739,96.94c1-2.85-5.33,2.65-8.84,7.45-5.56,7.61-9.8,17.38-10.58,19.09-2.55,5.6-.76,9.7-.76,16.31s-2.68,22.86-1.48,27.06S723.8,171,723.8,171l10.81-.6s1.62-60.11,3.43-61.91C738,108.45,737.17,102.1,739,96.94Z" transform="translate(-0.85 -0.13)"/><path class="cls-18" d="M745.23,101.11c-.72,0-6,5.11-7.26,6.2-1.85,1.57-4,21.88-5.13,27.14-2.3,10.49-9.25,30.38-7.72,36,.61,2.27,37-3.9,37-3.9s9.68-4.08,8.66-10.7-2-8.79.07-24.48c.95-7.23,11.72-25.4,7.57-27.73-6.37-3.56-18.68-12.81-18.68-12.81S756.19,100.72,745.23,101.11Z" transform="translate(-0.85 -0.13)"/><path class="cls-19" d="M757.84,87.58s-11.89,12.68-17,15c1.71,2.47,5.7,7.4,5.7,7.4l16.42-16.76Z" transform="translate(-0.85 -0.13)"/><path d="M733.6,183c.07.71,1,1.25,2.06,1.22l5.48-.2c1.07,0,1.88-.64,1.82-1.35l-1-10.46c-.07-.7-1-1.26-2.06-1.22l-5.49.19c-1.07.05-1.88.65-1.81,1.36Z" transform="translate(-0.85 -0.13)"/><path class="cls-14" d="M733.64,182.92l-1-10.45c-.07-.71.74-1.31,1.82-1.35l1.23-.05,1.31,13-1.33,0C734.63,184.18,733.71,183.64,733.64,182.92Z" transform="translate(-0.85 -0.13)"/><path d="M741.17,188.39a1.94,1.94,0,0,0,2.07,1.8l5.48-.38a1.94,1.94,0,0,0,1.81-2.06L749.44,172a1.93,1.93,0,0,0-2.06-1.8l-5.49.36a2,2,0,0,0-1.8,2.08Z" transform="translate(-0.85 -0.13)"/><path class="cls-14" d="M741.21,188.31l-1.09-15.8a2,2,0,0,1,1.81-2.07l1.23-.09L744.59,190l-1.32.08A1.94,1.94,0,0,1,741.21,188.31Z" transform="translate(-0.85 -0.13)"/><path class="cls-19" d="M760.56,92.84c1.19,2.38,11.55,8.15,12.06,9s-3.57,1.35-5.26,3.91c-4.93-2.56-13.25-8.49-12.23-10S760.56,92.84,760.56,92.84Z" transform="translate(-0.85 -0.13)"/><path class="cls-20" d="M738.74,115.83c-10.35-2.66-5.71-15.24-5.71-15.24l-5.13,5.32a161.76,161.76,0,0,1-5.53,21.46c-3.55,10.26-7,42.31-4.63,46.25,5.92,2.76,15.08,1.86,14.69-2.17S738.74,115.83,738.74,115.83Z" transform="translate(-0.85 -0.13)"/><path class="cls-15" d="M779.57,102.93c-5.13.38-11.44,6.28-13.41,10.08s3.15,27,7.49,27c0,8.36,1.36,35,1.36,35s-29.63,3.7-46.73.57c-2.75-.51,3.46-54,8.59-60.09,0,0,13.91-.62,19-9s11.44-12,13.81-10.84S779.57,102.93,779.57,102.93Z" transform="translate(-0.85 -0.13)"/><polygon points="746.42 169.03 714.13 169.79 677.64 136.28 708.61 132.75 746.42 169.03"/><path class="cls-16" d="M750.89,151.21c-3-.92-15.62,1.74-17.29-.13s-2.71-2.5-5.7-3c-1.93-.32-4.23-2.36-4.08-1.91a10.38,10.38,0,0,0,3.13,4,40.8,40.8,0,0,1-6.55,1.33,6.48,6.48,0,0,0-1.62.31c-2.85.24-8.12.73-8.23,1.3s-.5.85,1.21,1.14c.82.14,2.59.22,4.19.28-2.58,0-5.76.11-5.76.79,0,1,5.95,1.66,8.42,1.81a1.54,1.54,0,0,0,.12.13c-2.21.19-6-.33-6.62.05s-.71,1.21,1.22,1.64a54.62,54.62,0,0,0,6,.81l.06.07c-2,0-5.29,0-5.49.47s5.11,1.74,7.91,2a4.23,4.23,0,0,0,.88.18,70.19,70.19,0,0,0,12-.65c2.69-.54,15.7,1.22,18.35,2.08S750.89,151.21,750.89,151.21Z" transform="translate(-0.85 -0.13)"/><path class="cls-19" d="M772.71,103.7c3.74-1.92,7.82-2.2,12.4,6.45,5.08,9.61,5.94,42.24,3.95,47.33s-26.93,13.87-34.57,6.74c-2-4.46-6-14.67-6-14.67s22.31-3.77,21.37-7.65S768.22,131.56,767,125,766.77,106.75,772.71,103.7Z" transform="translate(-0.85 -0.13)"/><g class="cls-38"><path class="cls-9" d="M784.65,115c-2.93-5.06-12.66-4.9-14.29,2.3l3.26,10.91,5.85,2,5.49-4Z" transform="translate(-0.85 -0.13)"/><path class="cls-39" d="M783.85,115.48c-2.48-4.29-11-3.74-12.18,2l2.83,9.22,5,1.71L784.1,125Z" transform="translate(-0.85 -0.13)"/><path class="cls-19" d="M775,123.42c.27,1.1,2.1,1.73,4.08,1.48h0c2-.25,3.52-1.29,3.52-2.39l0-3.84c0-1.46-2-2.55-4.52-2.3h0c-2.53.24-4.32,1.73-4,3.21Z" transform="translate(-0.85 -0.13)"/><g class="cls-40"><polygon class="cls-41" points="780.56 120.36 778.75 120.5 778.55 119.32 776.41 119.64 776.37 120.87 774.86 121.31 775.12 123 780.68 122.22 780.56 120.36"/><path class="cls-41" d="M779.38,119.3l-2.11.3s-.22-.31-.12-.47a4.84,4.84,0,0,1,.81-.94l.43-.09a4.78,4.78,0,0,1,1,.62C779.57,119,779.38,119.3,779.38,119.3Z" transform="translate(-0.85 -0.13)"/><polygon class="cls-41" points="775.13 120.67 775.21 121.78 775.88 121.64 775.68 120.53 775.13 120.67"/><polygon class="cls-41" points="779.44 120 779.53 121.1 780.19 120.97 779.99 119.85 779.44 120"/></g><path class="cls-42" d="M782.6,116.88c-1.13-1.44-3.37-1.63-4.64-1.43a7.33,7.33,0,0,0-4.32,2.33c-.26.06-.84-.56-.73-1,.27-.83,2.57-2.43,5.1-2.68,2.17-.22,5,1.06,4.9,1.83S782.6,116.88,782.6,116.88Z" transform="translate(-0.85 -0.13)"/></g><polygon class="cls-19" points="748.8 149.27 743.32 150.03 745.81 165.01 755.52 162.91 748.8 149.27"/><path class="cls-19" d="M739.11,94.13l-1.9.38-7.65,12.3,7.55-2.71s2.42-7.69,2.42-8.4A4.36,4.36,0,0,0,739.11,94.13Z" transform="translate(-0.85 -0.13)"/><polygon class="cls-4" points="188.28 307.55 182.68 328.09 212.56 328.09 207.58 307.55 188.28 307.55"/><path d="M195.48,320.7a3.77,3.77,0,0,0,2.74,1.27c1.26,0,2.13-.66,2.13-1.74s-.76-2-3.4-2v-1.53c2.27,0,3-.78,3-1.85a1.51,1.51,0,0,0-1.71-1.54,3.33,3.33,0,0,0-2.32,1.09l-1.07-1.29a5.08,5.08,0,0,1,3.46-1.45c2.22,0,3.74,1.09,3.74,3.05a2.77,2.77,0,0,1-2,2.64v.08a2.93,2.93,0,0,1,2.39,2.86c0,2.11-1.83,3.34-4,3.34a5,5,0,0,1-3.92-1.63Z" transform="translate(-0.85 -0.13)"/><g class="cls-40"><path class="cls-9" d="M598.51,391.73s-2.2,4.22-1.29-3.19l53.9-3.35L533,383.78l117.52-2.64c.06-.23-112.51-1.54-64.75-2.18,0,0-38.11-3.27-12.32-2.74-.09.73,187.15,3.23,201.2,5,0,.33-117.38-3.41-124.78-2.54,0,.21,112.27,3.47,120.9,5.47,0,.28-108.93-3.22-118.64-.47,0,.16,100.29,3.62,112.48,6.31,0,0-19.27-1.07-24.42-.69l9,.87-14.45-.07-8.35-.68s22.63,2,24.21,3.06c0,0,10.32-1.26-30.52-.7C667.93,391.41,744.75,382.74,598.51,391.73Z" transform="translate(-0.85 -0.13)"/><path class="cls-9" d="M655.52,382.71c.05,0,22,.57,46.36,1.18h0c24.4.61,51.2,1.33,60.84,1.77h0v0c-19.27-.91-107.18-2.83-107.19-3Zm0,0h0s0,0,0,0Zm0,0h0v0h0v0Zm0,0v0l0,0Z" transform="translate(-0.85 -0.13)"/></g><g class="cls-40"><path class="cls-9" d="M841.31,356.53c-16.75.87-32.19,1.5-46.26,1.73-57,1.82-89.71.62-89.7.62-55.2,1.4-41.26-.26-41.26-.18,2.13,1.07,32.76,2.72,32.76,2.68l-11.3-.51L666,361l12.15.77c-7,.5-33-.55-33-.59,16.44,3.6,152.36,3.45,152.33,3.35-13,3.66-160.7,3.29-160.77,2.42,11.8,3.26,164.06,2.62,164,2.47-9.92,1.74-169.2,1.45-169.36.39,13.17,2.83,133.57,3,210,1.68Z" transform="translate(-0.85 -0.13)"/><path class="cls-9" d="M647.63,365.49v-.05c9.36.56,30.67.74,54.15.74h0c31.54,0,67-.32,82.79-.5h0l8.33-.08h0c-1.12.09-49.51.62-91.12.63h0c-23.49,0-44.79-.18-54.15-.74Zm145.27.12v0s0,0,0,0Zm0,0h0Zm0,0h0v0h0v0Zm0,0v0l0,0Z" transform="translate(-0.85 -0.13)"/></g><polygon class="cls-43" points="687.27 370.12 620.07 407.15 564.97 407.15 646.77 365.33 687.27 370.12"/><polygon class="cls-29" points="654.72 346.38 644.84 369.5 666.58 366.37 667.61 347.34 654.72 346.38"/><polygon class="cls-4" points="687.27 370.12 675.14 344.15 654.72 346.38 654.45 376.61 687.27 370.12"/><path d="M675.68,361.88l-2.09.44.92,4.27-2.81.6-.92-4.27-7.31,1.57-.44-2,4.36-11.66L671,350l2.14,10,2.08-.45Zm-5.39-1.27-.81-3.75c-.2-1-.45-2.49-.6-3.46l-.11,0c-.23.95-.52,1.88-.8,2.87l-2,5.25Z" transform="translate(-0.85 -0.13)"/><polygon class="cls-44" points="348.63 379.76 374.78 364.2 333.63 367.77 306.3 382.88 303.81 416.49 358.28 385.68 348.63 379.76"/><polygon class="cls-45" points="324.56 390.06 317.91 394.98 277.51 416.49 228.79 416.49 286.22 386.14 324.56 390.06"/><path d="M360.21,383.81c.6,1.48-.58,3.12-2.72,3.61L346,390c-2.32.52-4.36-.47-4.54-2.15L340,372.1c-.08-.87,1.15-1.78,2.76-2.06l8-1.35c1.52-.26,3,.16,3.34,1Z" transform="translate(-0.85 -0.13)"/><path class="cls-14" d="M360.3,383.78l-6.12-14.15c-.36-.8-1.84-1.21-3.37-.95l-.21,0c-.1.19.17.49.24.7l6.05,17.2.72.78C359.77,386.9,361,385.27,360.3,383.78Z" transform="translate(-0.85 -0.13)"/><path d="M359.85,367.46a3,3,0,0,0-.76,2.92c.34,1.71.21,3.17-5.43,4.57l-5.34,1.32.43,1.32s0,.32,6.57-1.64c6.16-1.86,6.16-3.53,5.78-5.43a3.23,3.23,0,0,1,1.28-3.62Z" transform="translate(-0.85 -0.13)"/><path d="M381.55,360.22c.47,1-.34,1.81-1.7,2.18L341,372.73c-2.26.61-5.8,1.36-6.24,0l-.24-4.82c-.42-1.31,1.69-2,3.92-2.46l39.92-8.87a2.25,2.25,0,0,1,2.69,1.3Z" transform="translate(-0.85 -0.13)"/><path class="cls-14" d="M374.87,363.78s-.3-.8-1-.62l-38.21,9.68c-1.8.47-1.57,1.21-1.33,2l.09.24c.24.8.39,1.29,2.21.78l13.14-3.64a4.81,4.81,0,0,0,1.7-.83l22.82-6.25A.88.88,0,0,0,374.87,363.78Z" transform="translate(-0.85 -0.13)"/><path class="cls-14" d="M345.3,390.16c-2.56.13-4.28-.89-3.66-2.14s17.12-5.4,17.9-4.39-.74,3.18-1.93,3.77S345.3,390.16,345.3,390.16Z" transform="translate(-0.85 -0.13)"/><polygon class="cls-4" points="290.33 362.9 282.46 391.75 324.43 391.75 317.44 362.9 290.33 362.9"/><path d="M299.41,381.63a5.34,5.34,0,0,0,3.73,1.7,2.88,2.88,0,0,0,3.08-3.05,2.74,2.74,0,0,0-2.93-3,4.1,4.1,0,0,0-2.55.9l-1.38-.87.48-7.86h8.51v2.42h-6l-.33,3.86a4.49,4.49,0,0,1,2.11-.53c2.72,0,5,1.56,5,5a5.37,5.37,0,0,1-5.6,5.49,7.32,7.32,0,0,1-5.44-2.21Z" transform="translate(-0.85 -0.13)"/><g class="cls-46"><path class="cls-47" d="M50.8,391.49c0,.27.26.31.47.51l-.66.83c.46.12-.14-1.12-1.17-1.22C49.87,392,50.38,391.48,50.8,391.49Z" transform="translate(-0.85 -0.13)"/><path class="cls-47" d="M36.29,313.78l.28-.08.29.82C36.33,314.79,35.65,314.21,36.29,313.78Z" transform="translate(-0.85 -0.13)"/><path class="cls-47" d="M38.49,313.81l-.2.31.77.43,1.15-1.21-.41-.27.41.27c.49-.39-.15-.86-.12-1.25-1-.23-1.78.75-2.43,1.57l-.38-.15c1.1-1.33,2.95-1.46,5-1.78a1.81,1.81,0,0,1,1.2,1.21c-1.42,1.8-3.76,1.8-5.86,1.61Z" transform="translate(-0.85 -0.13)"/><polygon class="cls-48" points="40.01 314.18 39.64 314.02 40.15 313.24 40.01 314.18"/><path class="cls-47" d="M92.26,391.28c1.8.07,2.15,1.63,1.84,2.85-1,.37-1.32,1.47-2.29,1.83-.08-.24-.51-2-1.72-1.11,1.33.31-.22,1.45-1.07,1.78l.7-.8c-.9-.67-1.6.13-2.67-.24l.7-.8-1.42-.55C88.18,393.16,89.56,391.43,92.26,391.28Z" transform="translate(-0.85 -0.13)"/><path class="cls-47" d="M71.28,330.7c2.42-.84,4.14-2.53,6.48-.69.68,1.24-.87,2.5-1.86,3.12l-3.31.8.2-.3-1.61-.88.2-.3-1.15-.36C71.2,331.86,72.09,330.89,71.28,330.7Z" transform="translate(-0.85 -0.13)"/><path class="cls-48" d="M74.75,330.36c-.56-.37-1.28.19-1.73.17.16-.42.68-.67,1.06-.89,1.25.2.78,1.58,1.1,2.14-.6.91-2.51.48-2.92,1.09C74.18,331.9,72.09,330.89,74.75,330.36Z" transform="translate(-0.85 -0.13)"/><path class="cls-48" d="M75,331.31c-.24.18-.48.37-.27.57l.11.36-.69.16-.11-.35.42-.1-1-.66Z" transform="translate(-0.85 -0.13)"/><path class="cls-47" d="M101.36,389.7c.58.12.4.92.67,1.36-.57,1.28-2,1.38-3.43,1.72.62-.65,1.3-.19,1.66-1.29l-1-1c-.24.56-.89,1.1-1.42.72C98.68,390.36,99.87,389.3,101.36,389.7Z" transform="translate(-0.85 -0.13)"/><path class="cls-47" d="M81.88,318.36l.8.7-1.43,1.23c.24-.18.49-.37.28-.58l-.53-.24L80.09,321c-.45-.52-1,0-1.5,0l1-.24-.14-.48.49.14.35-1.35-3.37.81C78.55,319.3,80,318.07,81.88,318.36Z" transform="translate(-0.85 -0.13)"/><path class="cls-47" d="M235.57,361.2c.23-2-2.11-.35-3-.93.54-.73,2.23.32,2.47-1.1a2.85,2.85,0,0,0-3.17,0l-.28.05c1.25-1.35,5.13-.84,5.39-3.39-.7.13-1.61-.69-1-1.3,2.31-.57,2.7-2.51,4.82-3.29l-1.11-.41c1.67-.82,4.1-.9,6.13-1.41-2-1.75,3.38-.9,2.52-2.61,1.43,1.11,3.25,1.51,3.87.52,2.64.75,6.2,2.32,6.87,4.95,1.31,1.24,0,1.75.19,3.59l-.51-.28c0,.62-.8,1.4.17,1.84-1,.45-2,1.13-2.2,2.17a2,2,0,0,1-1.85,2.47c-.35.32-.13.65-.07.89a2,2,0,0,0-1.51.91c-2.57,1.37-5.72,2.08-8,4.77l.86-.67-.79-.84-1.86,2.47c0-1.13,1.59-2.42.49-3.34-1.15-.53-1.91.48-2.85.79l.82-.78c-1.2-.77-2.46,1.21-4.08.52,1.27-2-.35-2.68-2.07-3.23l-3.31.62C234,363.88,235.64,362.69,235.57,361.2Z" transform="translate(-0.85 -0.13)"/><path class="cls-47" d="M100.5,324c-.39.21-.29.57-.19.92.79.71,1.69.27,2.58.32l.19-.92c-.92-.68-1.11.75-1.83-.23.34-1.45,2.36-.51,3.6-.78,1.29,1.49-1,2.11-2.16,2.24-1.39.8-2.42-.24-3.63-.36C99.31,325,99.56,323.83,100.5,324Z" transform="translate(-0.85 -0.13)"/><path class="cls-47" d="M123.93,323.91c1.8.27,3.74,1.64,3.4,2.58.46.66-.27,1.19-.32,1.57,1.71-.09,4,.84,3.16,2.76-4.65,3.17-10.19.63-13.15-.16l.74-1-1.53-.32A9.9,9.9,0,0,1,123.93,323.91Z" transform="translate(-0.85 -0.13)"/><path class="cls-47" d="M128.26,343.47l-.68.13c.89-.42,1.22-1.36,1.88-2.12-.5-.28-.86-.58-1.51-.33l-.21.29c.15-.53,2.3-.45,1.26-1.75l-.47-.15c3.08-.24,3-2.73,5.83-2.91,1.62-2.7,5-.62,6.88-1.12.09,1,1.41,1.11,2.13,1.72l1.21,4.89c-1,.69-1.27,1.76-2,3,1.81.4,3.88,1.36,4.78,2.7,1.89,2.51-1.44,3.4-1.76,5.47-1.52-.45-3,.59-4,1.42l-.55.61c.67-2.38-3-.9-4.65-1.08l-.94.19c.42-.59,1.52-.68,1.31-1.52l-2.29.46c.38-.21.92-.31,1.19-.87l-.88-.7c.57,0,.58-.49.79-.78.05-.38-.55-.52-.88-.7l.92-.81c-1-.56-2-.49-1.86-1.76l-3.37.16.79-.78a1.76,1.76,0,0,0-1.78-.28l-.2.3.46-1-2.36.21C127.34,345.41,130.36,344.43,128.26,343.47Z" transform="translate(-0.85 -0.13)"/><polygon class="cls-48" points="133.9 348.69 133.84 348.45 134.79 348.27 134.85 348.51 133.9 348.69"/><path class="cls-47" d="M151.4,337.48c.06.23-.16.53-.26.67.29-.55-.93-1.45-1.43-.61C150,337.11,151.2,336.64,151.4,337.48Z" transform="translate(-0.85 -0.13)"/><path class="cls-47" d="M163.38,336.51l-.35-.31c-.41.07,1.49-.91.61-1.62,3.09-2.57,5.69,3.06,8.3-.91,2.31,1.33,5.1,0,6.4,2.47.61,2-1.32,3.48-3.08,4.42l-2.85,1.14c0-.51-.71-.62-1.09-.42l-1.36.25c.56-1.85-2-.25-3-1.2l.41-.07c-.7-1.75-2.64-.39-3.8-1.67l-1.17-.16C162.09,337.62,163.12,337.18,163.38,336.51Z" transform="translate(-0.85 -0.13)"/><path class="cls-47" d="M203.85,346.51c-1-.18,1.55-.66,0-1.24,1.5-.28.89-1.66,1.92-2.1l-.33-.19c2.52.42,1.08-3.32,5.18-2.2,1.24-2,3.2.93,4.56.06,2.55,1.78,2.94,2.83,2.58,5.52-.91,2.16-.82.77-2.25,3.16l-.9,1c-1.13-1.79-1.3,2.36-2.87.52-1.06.32-1.57,1.16-2.86,1.14a.84.84,0,0,0,.21-.91c-.82-.47-1.69.06-2.4.07l.08-.89-1.78-.3c.38-.2.3-.56.21-.92l-1.14,0C203,347.91,206.07,347.49,203.85,346.51Z" transform="translate(-0.85 -0.13)"/><polygon class="cls-48" points="210.3 347.18 208.03 347.83 209.34 347.35 210.3 347.18"/></g><g class="cls-46"><path class="cls-47" d="M444.26,325.46l.24-.07.25.79C444.3,326.45,443.71,325.88,444.26,325.46Z" transform="translate(-0.85 -0.13)"/><path class="cls-47" d="M446.15,325.49c.52-.91,0,0-.18.3l.67.42,1-1.18-.35-.26.35.26c.42-.38-.12-.83-.1-1.21-.88-.23-1.53.72-2.09,1.52l-.32-.14c.94-1.3,2.53-1.42,4.32-1.73a1.64,1.64,0,0,1,1,1.17c-1.22,1.76-3.22,1.76-5,1.58Z" transform="translate(-0.85 -0.13)"/><polygon class="cls-48" points="447.33 325.85 447.01 325.7 447.45 324.93 447.33 325.85"/><path class="cls-47" d="M474.28,342c2.08-.81,3.55-2.46,5.56-.67.58,1.21-.74,2.44-1.59,3l-2.84.78.17-.29L474.2,344l.17-.3-1-.34C474.21,343.09,475,342.14,474.28,342Z" transform="translate(-0.85 -0.13)"/><path class="cls-48" d="M477.25,341.63c-.47-.36-1.09.18-1.48.16.14-.41.59-.65.91-.87,1.08.2.68,1.54.95,2.09-.51.88-2.16.47-2.51,1.06C476.77,343.12,475,342.14,477.25,341.63Z" transform="translate(-0.85 -0.13)"/><path class="cls-48" d="M477.51,342.55c-.2.18-.42.36-.23.56l.1.34-.6.17-.09-.35.35-.1-.81-.64Z" transform="translate(-0.85 -0.13)"/><path class="cls-47" d="M483.37,329.93l.7.68-1.23,1.2c.2-.18.42-.36.24-.56l-.46-.25-.77,1.45c-.4-.51-.9,0-1.29,0l.84-.23-.12-.47.41.13.3-1.31-2.88.79C480.52,330.84,481.75,329.64,483.37,329.93Z" transform="translate(-0.85 -0.13)"/><path class="cls-47" d="M499.35,335.43c-.33.2-.24.55-.16.89.68.7,1.45.26,2.22.32l.16-.9c-.79-.66-1,.73-1.57-.23.29-1.41,2-.5,3.09-.76,1.1,1.45-.89,2.06-1.86,2.18-1.19.78-2.07-.23-3.11-.34C498.33,336.41,498.55,335.26,499.35,335.43Z" transform="translate(-0.85 -0.13)"/><path class="cls-47" d="M519.45,335.34c1.55.26,3.21,1.6,2.93,2.51.39.65-.24,1.16-.28,1.53,1.47-.09,3.4.82,2.71,2.69-4,3.09-8.74.62-11.28-.15l.64-1-1.32-.31C514.29,337.72,516.33,335.8,519.45,335.34Z" transform="translate(-0.85 -0.13)"/></g><path class="cls-15" d="M135.8,136.29c.72,10.15,16.3,60.88,16.3,60.88L139.78,203s-15.22-62-14.49-69.57S135.8,136.29,135.8,136.29Z" transform="translate(-0.85 -0.13)"/><path d="M138.53,219.82c7.19,18,8.94,32.34,15.29,56.66,3.39,13,17.3,81.28,21,89.24-15.81,9-35.73,9.82-35.73,9.82s-24.48-82.54-26.15-89c-14.39-55.78-53.34-51-39.84-97.74,4.85-16.83,45.64-3,53.76-1.34C131.33,188.33,138.53,219.82,138.53,219.82Z" transform="translate(-0.85 -0.13)"/><path d="M86.87,189.08c-3.24,8.11-4.39,12.18-1,31,2.81,15.72,4.67,72.37,4.67,72.37s-5.84,67.92-5,84.36c22.07,1.9,32.78-10.38,32.53-15.25s7.5-68.6,7.93-72.29-12.5-64.23-14.92-75.09S86.87,189.08,86.87,189.08Z" transform="translate(-0.85 -0.13)"/><path d="M143.81,367.81c-1.77,7.22-2.09,11.85,2.1,14.95,3,2.24,10.63,1.6,17.16-2.07,3.86-2.19,9.29-3.36,14-4,10-1.41,12.55-17.45,4.25-17.12s-17.5,1.17-21.54-1.15S143.81,367.81,143.81,367.81Z" transform="translate(-0.85 -0.13)"/><path d="M89.88,370.08c-.57,4.52-4,9.17-.18,11.83s7.45,2.46,11.85,1,5.91-4,8.23-6.14,8.76-3.72,10.64-6.66,3.16-9.55-.53-10.15c-6.65-1.08-14.11,2.78-14.11,2.78Z" transform="translate(-0.85 -0.13)"/><path class="cls-49" d="M152.62,271.09c-6.35-24.33-8.09-38.68-15.29-56.67,0,0-4.62-20.21-8.78-28.7l-11.31-1.88c8.39,15.59,18,38.38,20.39,57.57,2,15.65,20.65,94.28,27.49,122.78a52.08,52.08,0,0,0,8.47-3.87C169.91,352.37,156,284.07,152.62,271.09Z" transform="translate(-0.85 -0.13)"/><polygon points="172.3 110.54 158.18 103.46 151.28 111.84 166.99 121.01 172.3 110.54"/><path class="cls-49" d="M178,119.63c-3.15,6.2-8.84,9.65-12.72,7.69s-4.47-8.59-1.34-14.79,8.84-9.65,12.72-7.69S181.09,113.43,178,119.63Z" transform="translate(-0.85 -0.13)"/><path d="M151.37,120.39a1.69,1.69,0,0,1-2.32.52L131.23,109.2a1.69,1.69,0,0,1-.86-2.21l12.84-24.18a1.69,1.69,0,0,1,2.32-.52l21.71,11.53a1.71,1.71,0,0,1,.87,2.22Z" transform="translate(-0.85 -0.13)"/><path class="cls-50" d="M162,105c-1.11-2.06-5.35-6-7.41-8.12s-3-4.73-.45-3.73A46.7,46.7,0,0,0,159,94.71s1.51-3,.39-3.4-2.79-2.72-2.79-2.72,5.07-.57,7.3.32,6.72,3.41,6.91,7a31.18,31.18,0,0,1-.88,8.7C169.67,106.06,162,105,162,105Z" transform="translate(-0.85 -0.13)"/><path class="cls-51" d="M133.57,71.55C131.71,75.26,120,84,114.7,87.41s-14.34,7-14.34,7l16.43,24.44S129.28,97.54,137,98.75C141.71,99.5,133.57,71.55,133.57,71.55Z" transform="translate(-0.85 -0.13)"/><path class="cls-50" d="M138,98c1.34-.09,1.5-2.81,1.28-5.89l-1.46-3.44L115.12,106l2,6.5,5.11-1.75S129.08,98.83,138,98Z" transform="translate(-0.85 -0.13)"/><path class="cls-50" d="M160.94,85.73c-9.57,12-25.83,25.16-31.22,22.15s-6.94-25-1.15-35.47,18.05-15.49,27.3-8.32C165.94,71.91,168.34,76.41,160.94,85.73Z" transform="translate(-0.85 -0.13)"/><path class="cls-52" d="M163.44,85.59c5.8-1.11,6-27.95-11.59-33.16S127.51,55,123,63s-4.82,18.29-7.45,17.62c-3.51-.89,13.42,14.62,13.42,14.62s12.13-4.88,13.47-6.56c3.89-4.89,10-3.45,7.73-.36s-.17,3.58-.17,3.58l.24,1.27s8.08-7.18,10.33-7.87S163.44,85.59,163.44,85.59Z" transform="translate(-0.85 -0.13)"/><path class="cls-20" d="M102.55,92.08c-5.4,3.6-16.22,6.71-24.37,26.27-6.18,14.83-11.06,55.09-12,82.08,7.07,8.69,26.11,9.44,39.68,9.78a73.53,73.53,0,0,0,37-8.7s-11.23-42.86-13-60.85-.29-27.89,6.9-33.29-6.3-11.69-13.49-15.29S102.55,92.08,102.55,92.08Z" transform="translate(-0.85 -0.13)"/><path class="cls-50" d="M134,110.55c8.69,2.5,28.91,7.66,28.91,7.66s-1.8-11.7-1.86-17.21c-.08-7.26,2.5-3.84,5.84-2.51s18.75,30.71,10.74,36.23-50.62-1.78-56.14-9.79,6.66-11.87,6.66-11.87Z" transform="translate(-0.85 -0.13)"/><path class="cls-18" d="M124.65,99.87c3.41-.72,6.47-.89,14,7.61,7.14,8,17.76,9.24,17.76,9.24s-8.88,25.91-13.95,26.09c-3.22.12-27.69-4.59-29.26-16.85C113.24,126,111.88,102.59,124.65,99.87Z" transform="translate(-0.85 -0.13)"/><path class="cls-19" d="M139.06,103.5c-7.58-8.5-19.51-1.2-18.48-1.45,3.21-.78,9.38.49,15.58,6.52,6.7,6.52,10.6,12.41,17.57,14.67a46.73,46.73,0,0,0,3.63-6.52S146.19,111.5,139.06,103.5Z" transform="translate(-0.85 -0.13)"/><path class="cls-18" d="M98.56,94.44l9.51-7.61s22-1.63,27.45,7.88a50.6,50.6,0,0,0-.54,5.43S120.58,89.27,98.56,94.44Z" transform="translate(-0.85 -0.13)"/><path class="cls-14" d="M85.31,107l1.57,0c.9,0,1.33.66.13,2.57s-2.52,2.66-3.39,2.56l-.5-.06-1.58,2.48-1-.17Zm-.72,3.57c.44,0,.9-.35,1.32-1s.34-.93-.06-1l-.45,0-1.26,2Z" transform="translate(-0.85 -0.13)"/><path class="cls-14" d="M86.76,111c1.57-2.55,3.28-3.92,4.57-3.88s1.38,1.58-.21,4.3-3.59,4.4-4.9,4.18S85.12,113.6,86.76,111Zm3,.28c.88-1.48,1-2.35.46-2.38s-1.41.77-2.29,2.22-1.14,2.46-.58,2.54S88.89,112.75,89.8,111.23Z" transform="translate(-0.85 -0.13)"/><path class="cls-14" d="M94.42,107.33l1.39,0L92,114.1l2.09.26-1.17,2.11-3.44-.57Z" transform="translate(-0.85 -0.13)"/><path class="cls-14" d="M98.88,107.49l1.58.05-5,9.34-1.57-.26Z" transform="translate(-0.85 -0.13)"/><path class="cls-14" d="M104.79,107.52a1.56,1.56,0,0,1,1.48,1.33l-1.79,1.53c-.13-.45-.3-.7-.75-.72-.79-.06-2,.92-2.86,2.65s-.94,3-.08,3.08a2.23,2.23,0,0,0,1.61-.66l.19,1.81a3.9,3.9,0,0,1-3,1.23c-1.72-.29-2.22-2.22-.48-5.52C100.74,109.12,103.09,107.47,104.79,107.52Z" transform="translate(-0.85 -0.13)"/><path class="cls-14" d="M107.87,107.81l5,.15-1,2.31-3-.19-.76,1.61,2.54.21-1.06,2.39L107,114,106,116l3.15.42-1.14,2.55-5.14-.83Z" transform="translate(-0.85 -0.13)"/></g></g></svg>